<svg width="489" height="326" viewBox="0 0 489 326" fill="none" xmlns="http://www.w3.org/2000/svg">
<g clip-path="url(#clip0_52_200)">
<path d="M106.691 209.634H96.4218V259.147H106.691V209.634Z" fill="#427D9D"/>
<path d="M185.988 189.358H175.719V259.148H185.988V189.358Z" fill="#427D9D"/>
<path d="M147.194 193.732H136.926V259.148H147.194V193.732Z" fill="#427D9D"/>
<path d="M115.538 185.326V258.547V259.148H116.467H125.807H126.736V258.547V185.326H115.538ZM116.467 258.547V186.062H125.807V258.547H116.467Z" fill="white"/>
<path d="M156.238 165.884V258.389V259.148H157.167H166.507H167.436V258.389V165.884H156.238ZM157.167 258.389V166.814H166.507V258.389H157.167Z" fill="white"/>
<path d="M259.242 80.7854H243.928V189.68H259.242V80.7854Z" fill="#427D9D"/>
<path d="M377.494 85.6062H362.181V189.68H377.494V85.6062Z" fill="#427D9D"/>
<path d="M319.644 92.1282H304.331V189.679H319.644V92.1282Z" fill="#427D9D"/>
<path d="M272.436 50.6003V188.549V189.68H273.821H287.749H289.135V188.549V50.6003H272.436ZM273.821 188.549V51.9865H287.749V188.549H273.821Z" fill="white"/>
<path d="M333.129 50.6003V188.549V189.68H334.515H348.443H349.829V188.549V50.6003H333.129ZM334.515 188.549V51.9865H348.444V188.549H334.515Z" fill="white"/>
<path d="M386.051 137.809V187.048V188.459H387.437H401.365H402.751V187.048V137.809H386.051ZM387.437 187.048V139.194H401.365V187.048H387.437Z" fill="white"/>
<path d="M404.473 108.272C404.473 109.13 403.778 109.826 402.919 109.826C402.06 109.826 401.365 109.13 401.365 108.272C401.365 107.414 402.06 106.717 402.919 106.717C403.778 106.717 404.473 107.414 404.473 108.272Z" fill="#427D9D"/>
<path d="M421.114 56.2839C421.114 57.1419 420.419 57.8382 419.56 57.8382C418.701 57.8382 418.006 57.1425 418.006 56.2839C418.006 55.4258 418.701 54.7295 419.56 54.7295C420.419 54.7295 421.114 55.4252 421.114 56.2839Z" fill="#427D9D"/>
<path d="M382.314 68.3648C380.868 68.3648 379.692 67.1886 379.692 65.7425C379.692 64.2963 380.868 63.1201 382.314 63.1201C383.76 63.1201 384.937 64.2963 384.937 65.7425C384.937 67.1879 383.76 68.3648 382.314 68.3648ZM382.314 63.7721C381.228 63.7721 380.344 64.6556 380.344 65.7425C380.344 66.8293 381.228 67.7128 382.314 67.7128C383.401 67.7128 384.285 66.8293 384.285 65.7425C384.285 64.6556 383.401 63.7721 382.314 63.7721Z" fill="white"/>
<path d="M430.477 92.4659C429.031 92.4659 427.855 91.2897 427.855 89.8435C427.855 88.3974 429.032 87.2212 430.477 87.2212C431.923 87.2212 433.099 88.3974 433.099 89.8435C433.1 91.2897 431.923 92.4659 430.477 92.4659ZM430.477 87.8732C429.39 87.8732 428.507 88.7567 428.507 89.8435C428.507 90.9304 429.39 91.8139 430.477 91.8139C431.563 91.8139 432.447 90.9304 432.447 89.8435C432.448 88.7573 431.563 87.8732 430.477 87.8732Z" fill="white"/>
<path d="M79.385 242.397C79.385 243.255 78.6893 243.952 77.8306 243.952C76.9726 243.952 76.2762 243.256 76.2762 242.397C76.2762 241.539 76.9719 240.843 77.8306 240.843C78.6893 240.843 79.385 241.538 79.385 242.397Z" fill="#427D9D"/>
<path d="M94.4716 191.963C95.3301 191.963 96.026 191.267 96.026 190.409C96.026 189.55 95.3301 188.854 94.4716 188.854C93.6132 188.854 92.9172 189.55 92.9172 190.409C92.9172 191.267 93.6132 191.963 94.4716 191.963Z" fill="#427D9D"/>
<path d="M57.2254 202.489C55.7793 202.489 54.6038 201.313 54.6038 199.866C54.6038 198.42 55.78 197.244 57.2254 197.244C58.6716 197.244 59.8478 198.421 59.8478 199.866C59.8478 201.312 58.6709 202.489 57.2254 202.489ZM57.2254 197.896C56.1392 197.896 55.2558 198.78 55.2558 199.866C55.2558 200.953 56.1392 201.837 57.2254 201.837C58.3123 201.837 59.1958 200.953 59.1958 199.866C59.1958 198.78 58.3117 197.896 57.2254 197.896Z" fill="white"/>
<path d="M59.5218 155.957C59.5218 157.225 58.4936 158.253 57.2254 158.253C55.9573 158.253 54.9291 157.225 54.9291 155.957C54.9291 154.689 55.9573 153.661 57.2254 153.661C58.4936 153.661 59.5218 154.689 59.5218 155.957Z" fill="white"/>
<path d="M383.866 189.382C387.059 186.586 387.33 181.44 382.62 176.061L328.152 113.857C323.442 108.478 317.036 106.383 313.843 109.179C310.65 111.975 311.88 118.602 316.59 123.982L371.058 186.185C375.768 191.564 380.673 192.177 383.866 189.382Z" fill="#576184"/>
<path d="M379.59 191.346C379.059 191.346 378.515 191.287 377.962 191.168C375.564 190.652 373.091 189.004 370.812 186.4L316.345 124.197C311.524 118.691 310.305 111.845 313.628 108.935C316.951 106.026 323.577 108.139 328.397 113.644L382.864 175.848C385.13 178.435 386.397 181.141 386.532 183.674C386.656 186.021 385.785 188.136 384.08 189.628C382.782 190.765 381.252 191.346 379.59 191.346ZM317.47 108.261C316.139 108.261 314.96 108.635 314.057 109.425C311.005 112.098 312.251 118.532 316.836 123.767L371.303 185.971C373.489 188.468 375.84 190.044 378.1 190.531C380.182 190.977 382.101 190.495 383.653 189.137C385.204 187.779 385.995 185.851 385.882 183.707C385.756 181.322 384.543 178.752 382.375 176.276L327.908 114.073C324.678 110.385 320.641 108.261 317.47 108.261Z" fill="#353148"/>
<path d="M319.891 126.522L330.681 117.074C332.137 115.8 332.283 113.586 331.008 112.131L327.03 107.589C325.754 106.133 323.541 105.987 322.085 107.262L311.297 116.707C309.842 117.982 309.695 120.196 310.97 121.651L314.947 126.195C316.222 127.65 318.436 127.797 319.891 126.522Z" fill="#9DD3FF"/>
<path d="M317.589 127.716C317.503 127.716 317.416 127.713 317.33 127.707C316.309 127.639 315.376 127.178 314.702 126.408L310.724 121.865C309.334 120.276 309.495 117.852 311.084 116.461L321.871 107.016C322.64 106.342 323.629 106.009 324.648 106.076C325.668 106.144 326.602 106.605 327.275 107.374L331.254 111.916C331.928 112.685 332.262 113.671 332.194 114.692C332.127 115.712 331.666 116.645 330.896 117.319L320.107 126.767C319.402 127.384 318.516 127.716 317.589 127.716ZM324.39 106.719C323.62 106.719 322.884 106.994 322.3 107.506L311.513 116.952C310.194 118.106 310.061 120.117 311.215 121.436L315.192 125.979C315.752 126.618 316.526 127.001 317.373 127.057C318.226 127.114 319.04 126.836 319.678 126.277L330.467 116.83C331.106 116.27 331.487 115.496 331.543 114.65C331.6 113.803 331.322 112.985 330.764 112.347L326.785 107.805C326.226 107.166 325.451 106.784 324.604 106.728C324.532 106.721 324.461 106.719 324.39 106.719Z" fill="#121936"/>
<path d="M329.501 117.952C329.409 117.952 329.319 117.914 329.254 117.839L322.246 109.749C322.128 109.614 322.143 109.408 322.28 109.29C322.416 109.172 322.621 109.187 322.739 109.323L329.747 117.413C329.865 117.548 329.85 117.754 329.714 117.872C329.653 117.926 329.576 117.952 329.501 117.952Z" fill="#121936"/>
<path d="M326.651 120.967C326.56 120.967 326.47 120.929 326.405 120.855L322.901 116.81C322.783 116.674 322.798 116.468 322.934 116.35C323.071 116.232 323.276 116.247 323.394 116.383L326.898 120.428C327.016 120.564 327.001 120.77 326.865 120.888C326.803 120.941 326.727 120.967 326.651 120.967Z" fill="#121936"/>
<path d="M262.208 111.645C276.932 128.462 302.501 130.157 319.317 115.432C336.133 100.707 337.829 75.1384 323.104 58.3221C308.379 41.5063 282.81 39.8105 265.995 54.5352C249.179 69.2607 247.483 94.8288 262.208 111.645ZM271.701 60.6843C285.041 49.003 305.325 50.3481 317.006 63.688C328.688 77.0286 327.343 97.3123 314.003 108.994C300.662 120.675 280.378 119.33 268.697 105.99C257.015 92.6499 258.36 72.3655 271.701 60.6843Z" fill="#121936"/>
<path opacity="0.47" d="M267.854 106.619C279.994 120.484 301.075 121.881 314.939 109.741C328.804 97.601 330.201 76.5206 318.061 62.6564C305.922 48.7917 284.841 47.3938 270.976 59.534C257.113 71.6736 255.714 92.7547 267.854 106.619Z" fill="white"/>
<path opacity="0.69" d="M282.375 70.7421C285.546 74.364 291.053 74.7284 294.674 71.5578C298.296 68.3864 298.66 62.8796 295.49 59.2584C292.318 55.6366 286.812 55.2714 283.19 58.4428C279.569 61.6134 279.203 67.1202 282.375 70.7421Z" fill="white"/>
<path d="M370.062 167.269C369.966 166.89 332.437 163.147 332.437 163.147L320.026 206.768C319.023 210.296 318.416 213.924 318.216 217.586L314.572 270.741C314.512 271.616 315.212 272.355 316.088 272.344L332.995 272.136C333.895 272.125 334.646 271.444 334.745 270.549L339.294 229.466L345.018 215.42L346.826 270.719C346.856 271.649 347.626 272.384 348.556 272.37L366.41 272.365C366.995 272.365 367.482 271.918 367.534 271.335C368.551 251.019 369.567 230.704 370.584 210.389C371.05 201.089 372.265 191.822 372.155 182.498C372.093 177.109 371.308 172.195 370.062 167.269Z" fill="#121936"/>
<path d="M344.199 218.771C344.16 218.771 344.119 218.764 344.079 218.749C343.912 218.682 343.83 218.493 343.896 218.326L352.3 197.046C352.367 196.879 352.556 196.795 352.723 196.863C352.89 196.93 352.973 197.119 352.906 197.285L344.502 218.565C344.452 218.693 344.329 218.771 344.199 218.771Z" fill="white"/>
<path d="M349.91 272.24L349.087 272.948L337.463 283.455C336.694 284.151 337.196 285.429 338.233 285.414L364.267 285.054C364.962 285.044 365.514 284.466 365.491 283.771L365.445 272.245L349.91 272.24Z" fill="#427D9D"/>
<path d="M337.463 283.455L337.867 283.089C338.062 283.268 338.317 283.389 338.629 283.384L364.662 283.024C364.983 283.019 365.269 282.89 365.487 282.688L365.49 283.77C365.514 284.465 364.962 285.044 364.267 285.053L338.233 285.414C337.196 285.429 336.694 284.151 337.463 283.455Z" fill="#121936"/>
<path d="M341.24 283.592C341.061 283.592 340.915 283.448 340.914 283.269C340.913 283.089 341.057 282.941 341.237 282.94L365.464 282.728H365.467C365.646 282.728 365.792 282.872 365.793 283.052C365.794 283.231 365.65 283.379 365.47 283.38L341.243 283.592H341.24Z" fill="white"/>
<path d="M351.268 275.653C351.18 275.653 351.091 275.617 351.027 275.548L348.847 273.169C348.725 273.036 348.735 272.83 348.867 272.708C348.999 272.587 349.206 272.595 349.328 272.728L351.508 275.107C351.63 275.24 351.621 275.446 351.488 275.567C351.426 275.625 351.347 275.653 351.268 275.653Z" fill="white"/>
<path d="M349.478 277.341C349.39 277.341 349.301 277.306 349.237 277.236L347.058 274.857C346.936 274.724 346.946 274.517 347.078 274.396C347.21 274.274 347.417 274.283 347.539 274.416L349.719 276.795C349.84 276.928 349.831 277.135 349.698 277.256C349.636 277.313 349.557 277.341 349.478 277.341Z" fill="white"/>
<path d="M347.795 279.001C347.707 279.001 347.619 278.965 347.555 278.895L345.375 276.516C345.253 276.383 345.263 276.177 345.395 276.055C345.528 275.934 345.734 275.943 345.856 276.075L348.036 278.454C348.158 278.587 348.148 278.794 348.016 278.915C347.953 278.973 347.874 279.001 347.795 279.001Z" fill="white"/>
<path d="M351.227 272.719L351.022 272.65C350.151 272.207 350.429 268.573 350.474 268.331C350.544 267.953 350.758 267.625 351.075 267.407C351.391 267.189 351.774 267.108 352.153 267.177C352.531 267.247 352.859 267.46 353.078 267.778C353.295 268.095 353.377 268.477 353.307 268.856C353.22 269.326 351.942 272.366 351.373 272.646L351.227 272.719ZM351.889 267.805C351.731 267.805 351.577 267.853 351.444 267.945C351.27 268.064 351.154 268.243 351.115 268.45C350.996 269.092 351.017 271.155 351.231 271.867C351.677 271.191 352.578 269.213 352.666 268.738C352.705 268.531 352.66 268.321 352.54 268.148C352.421 267.973 352.241 267.857 352.034 267.818C351.986 267.81 351.937 267.805 351.889 267.805Z" fill="white"/>
<path d="M350.837 272.697C349.721 272.697 347.386 271.831 347.266 271.76C346.581 271.357 346.352 270.473 346.754 269.788C347.156 269.103 348.043 268.873 348.726 269.277H348.726C349.097 269.495 351.221 271.169 351.442 272.054C351.497 272.274 351.442 272.428 351.387 272.519C351.309 272.646 351.11 272.697 350.837 272.697ZM347.997 269.729C347.93 269.729 347.864 269.738 347.797 269.755C347.593 269.808 347.422 269.937 347.315 270.119C347.095 270.493 347.221 270.978 347.596 271.199C348.032 271.455 350.095 272 350.788 272.064C350.512 271.557 348.965 270.174 348.395 269.838C348.272 269.767 348.136 269.729 347.997 269.729Z" fill="white"/>
<path d="M316.576 272.24L315.753 272.948L304.129 283.455C303.359 284.151 303.861 285.429 304.899 285.414L330.932 285.054C331.627 285.044 332.18 284.466 332.156 283.771L332.11 272.245L316.576 272.24Z" fill="#427D9D"/>
<path d="M304.129 283.455L304.533 283.089C304.728 283.268 304.983 283.389 305.295 283.384L331.328 283.024C331.648 283.019 331.935 282.89 332.152 282.688L332.156 283.77C332.179 284.465 331.627 285.044 330.932 285.053L304.897 285.414C303.861 285.429 303.359 284.151 304.129 283.455Z" fill="#121936"/>
<path d="M307.906 283.592C307.727 283.592 307.581 283.448 307.58 283.269C307.579 283.089 307.723 282.941 307.903 282.94L332.13 282.728H332.133C332.312 282.728 332.458 282.872 332.459 283.052C332.46 283.231 332.315 283.379 332.135 283.38L307.908 283.592H307.906Z" fill="white"/>
<path d="M326.623 279.629C326.131 279.629 325.651 279.482 325.236 279.2C324.69 278.828 324.321 278.265 324.197 277.616C323.943 276.276 324.827 274.978 326.166 274.723C326.816 274.602 327.474 274.736 328.021 275.109C328.567 275.481 328.935 276.043 329.059 276.692C329.182 277.342 329.045 278.001 328.673 278.547C328.302 279.093 327.738 279.462 327.089 279.585C326.934 279.614 326.778 279.629 326.623 279.629ZM324.838 277.494C324.929 277.972 325.201 278.386 325.603 278.66C326.006 278.934 326.492 279.033 326.968 278.943C327.956 278.756 328.607 277.801 328.42 276.813C328.328 276.335 328.057 275.921 327.655 275.647C327.251 275.372 326.766 275.273 326.29 275.363C325.302 275.552 324.651 276.507 324.838 277.494Z" fill="white"/>
<path d="M317.934 275.653C317.846 275.653 317.757 275.617 317.693 275.548L315.513 273.169C315.391 273.036 315.401 272.83 315.533 272.708C315.665 272.587 315.872 272.595 315.994 272.728L318.174 275.107C318.295 275.24 318.286 275.446 318.154 275.567C318.091 275.625 318.012 275.653 317.934 275.653Z" fill="white"/>
<path d="M316.145 277.342C316.056 277.342 315.968 277.306 315.904 277.236L313.724 274.857C313.602 274.724 313.611 274.518 313.744 274.396C313.876 274.274 314.084 274.284 314.205 274.416L316.385 276.795C316.507 276.928 316.497 277.134 316.365 277.256C316.302 277.313 316.223 277.342 316.145 277.342Z" fill="white"/>
<path d="M314.461 279.001C314.373 279.001 314.285 278.965 314.22 278.895L312.041 276.516C311.919 276.383 311.929 276.177 312.061 276.055C312.193 275.934 312.401 275.943 312.522 276.075L314.702 278.454C314.823 278.587 314.814 278.794 314.681 278.915C314.619 278.973 314.54 279.001 314.461 279.001Z" fill="white"/>
<path d="M317.893 272.719L317.688 272.65C316.817 272.207 317.095 268.573 317.14 268.331C317.284 267.55 318.035 267.029 318.819 267.177C319.197 267.247 319.526 267.461 319.744 267.778C319.962 268.095 320.043 268.478 319.973 268.856C319.886 269.326 318.608 272.366 318.04 272.646L317.893 272.719ZM318.556 267.806C318.184 267.806 317.851 268.071 317.781 268.45C317.662 269.092 317.684 271.155 317.898 271.867C318.343 271.191 319.244 269.213 319.333 268.738C319.371 268.531 319.326 268.32 319.207 268.148C319.088 267.974 318.908 267.857 318.702 267.818C318.652 267.81 318.604 267.806 318.556 267.806Z" fill="white"/>
<path d="M317.503 272.697C316.386 272.697 314.052 271.831 313.932 271.76C313.246 271.357 313.017 270.473 313.42 269.788C313.822 269.103 314.707 268.873 315.391 269.277C315.763 269.495 317.887 271.168 318.108 272.054C318.163 272.274 318.108 272.428 318.053 272.519C317.975 272.646 317.775 272.697 317.503 272.697ZM314.663 269.73C314.393 269.73 314.128 269.869 313.981 270.119C313.761 270.493 313.887 270.978 314.263 271.199C314.698 271.455 316.761 272 317.455 272.064C317.179 271.556 315.632 270.173 315.062 269.838H315.061C314.936 269.765 314.799 269.73 314.663 269.73Z" fill="white"/>
<path d="M295.001 113.915C293.95 113.306 292.749 112.984 292.076 114.337C291.292 115.472 292.149 116.349 293.165 117.048C292.469 116.711 291.762 116.628 291.269 117.406C290.226 118.693 291.201 119.905 292.331 120.641C291.059 120.268 290.71 122.472 291.874 123.759L297.831 131.062C299.079 132.672 303.188 133.332 304.492 133.574C304.764 133.625 305.046 133.584 305.288 133.449C308.037 131.907 309.133 126.551 308.193 122.042C308.193 122.042 306.111 115.296 304.981 113.166C304.86 112.937 304.73 112.707 304.54 112.532C304.35 112.357 304.084 112.244 303.831 112.296C303.502 112.364 303.286 112.678 303.142 112.982C302.694 113.925 302.6 114.984 302.511 116.032C301.875 115.379 301.2 114.677 300.471 113.898C298.816 112.369 296.398 109.512 294.523 111.793C293.941 112.641 294.36 113.357 295.001 113.915Z" fill="#FFA386"/>
<path opacity="0.36" d="M302.511 116.032L305.76 119.991C305.76 119.991 303.41 114.803 302.758 114.142L302.511 116.032Z" fill="#FF6A48"/>
<path d="M297.155 116.361C297.069 116.361 296.983 116.327 296.919 116.261C296.127 115.433 294.765 114.057 294.482 113.891C294.328 113.799 294.276 113.6 294.367 113.445C294.458 113.289 294.658 113.238 294.814 113.329C295.258 113.59 297.038 115.442 297.391 115.81C297.515 115.94 297.511 116.147 297.38 116.271C297.317 116.331 297.236 116.361 297.155 116.361Z" fill="#FF6A48"/>
<path d="M294.913 119.193C294.829 119.193 294.745 119.161 294.682 119.096L292.727 117.122C292.6 116.995 292.601 116.788 292.729 116.662C292.856 116.534 293.064 116.536 293.19 116.663L295.145 118.637C295.272 118.765 295.271 118.972 295.143 119.098C295.08 119.161 294.996 119.193 294.913 119.193Z" fill="#FF6A48"/>
<path d="M293.408 122.007C293.327 122.007 293.245 121.977 293.182 121.916L292.104 120.876C291.975 120.751 291.971 120.545 292.097 120.415C292.221 120.286 292.428 120.282 292.558 120.407L293.635 121.447C293.764 121.572 293.768 121.778 293.643 121.908C293.579 121.974 293.494 122.007 293.408 122.007Z" fill="#FF6A48"/>
<path d="M355.642 97.7008C354.542 97.3403 353.603 96.6563 352.896 95.7807L356.307 95.8902C356.587 95.8994 356.862 95.8772 357.128 95.8296C357.342 95.7911 357.548 95.7331 357.749 95.662C357.765 95.6562 357.782 95.6516 357.798 95.6457C357.988 95.5753 358.172 95.4886 358.348 95.3908C358.373 95.3765 358.399 95.3628 358.423 95.3478C358.595 95.2474 358.758 95.1359 358.912 95.012C358.932 94.9957 358.951 94.9787 358.97 94.9624C359.127 94.8307 359.277 94.6899 359.412 94.536L359.414 94.5341C359.548 94.3809 359.667 94.2152 359.777 94.0425C359.791 94.0203 359.806 93.9994 359.819 93.9773C359.92 93.8104 360.008 93.635 360.085 93.4531C360.098 93.4198 360.112 93.3865 360.125 93.3533C360.196 93.1701 360.255 92.981 360.298 92.7861C360.305 92.7561 360.31 92.7248 360.315 92.6941C360.356 92.4875 360.385 92.2762 360.392 92.0597L360.396 91.9691C360.401 91.8113 360.394 91.6561 360.381 91.5023C360.377 91.456 360.37 91.4103 360.364 91.364C360.35 91.2545 360.333 91.1463 360.311 91.04C360.301 90.9931 360.291 90.9455 360.279 90.8992C360.25 90.7851 360.217 90.6729 360.179 90.5627C360.169 90.5314 360.16 90.4995 360.148 90.4689C360.094 90.3248 360.033 90.1833 359.963 90.0477C359.961 90.0438 359.958 90.0398 359.956 90.0359C359.888 89.9055 359.813 89.7797 359.732 89.6584C359.716 89.6336 359.698 89.6095 359.68 89.5854C359.607 89.4811 359.53 89.3807 359.448 89.2842C359.431 89.264 359.414 89.2431 359.397 89.2235C359.19 88.9908 358.958 88.7802 358.702 88.6009C358.093 88.1732 357.36 87.9091 356.564 87.8837L351.554 87.7226C351.683 86.83 351.883 85.9329 352.117 85.0938C352.624 83.274 350.986 81.5743 349.147 82.0085C343.777 83.2786 341.685 83.3392 340.439 83.1267C340.274 83.0986 340.124 83.066 339.983 83.0308L337.439 96.2684C336.464 100.746 339.377 102.961 343.74 104.072L343.796 109.441C343.835 113.119 346.469 116.09 349.649 116.046L349.781 116.044C352.962 115.999 356.016 113.859 355.978 110.181L355.635 102.113C355.479 102.149 355.322 102.181 355.159 102.193L355.642 97.7008Z" fill="#FFA386"/>
<path d="M356.85 93.3018C356.789 93.3018 356.727 93.2849 356.673 93.249L355.058 92.2025L356.69 90.3776C356.81 90.2433 357.018 90.2328 357.15 90.3522C357.284 90.4721 357.296 90.6782 357.176 90.8125L356.051 92.0695L357.027 92.702C357.178 92.7998 357.221 93.0019 357.123 93.1525C357.062 93.249 356.956 93.3018 356.85 93.3018Z" fill="#FF6A48"/>
<path d="M340.954 89.609C340.939 90.0726 341.302 90.4612 341.765 90.4768C342.228 90.4925 342.617 90.1293 342.632 89.6664C342.648 89.2028 342.286 88.8142 341.822 88.7986C341.358 88.7829 340.97 89.1461 340.954 89.609Z" fill="#121936"/>
<path d="M343.067 95.2644C342.645 95.2644 342.178 95.134 341.672 94.8745C341.512 94.7924 341.448 94.5961 341.53 94.4357C341.613 94.2753 341.809 94.2127 341.969 94.2942C342.607 94.6215 343.154 94.6965 343.549 94.5114C343.838 94.3757 343.957 94.1501 343.961 94.1404C344.043 93.9813 344.238 93.9154 344.398 93.995C344.557 94.0745 344.625 94.2656 344.547 94.4266C344.521 94.4807 344.274 94.9619 343.652 95.1712C343.468 95.2338 343.273 95.2644 343.067 95.2644Z" fill="#FF6A48"/>
<path d="M346.608 87.8121C346.324 87.7971 346.048 87.606 345.771 87.4385C345.495 87.2631 345.214 87.0949 344.963 86.9586C344.713 86.8217 344.42 86.675 344.124 86.5381C343.833 86.3946 343.523 86.2649 343.359 86.0354C343.198 85.8169 343.268 85.4805 343.715 85.2647C344.141 85.0495 344.971 85.0156 345.801 85.4668C346.627 85.9219 347.038 86.6339 347.08 87.1053C347.132 87.5936 346.88 87.8303 346.608 87.8121Z" fill="#121936"/>
<path d="M342.558 90.9332C342.481 90.9332 342.404 90.9058 342.342 90.851C342.29 90.8054 341.823 90.422 341.267 90.8152C341.121 90.9188 340.916 90.8836 340.813 90.7369C340.71 90.5896 340.745 90.3862 340.892 90.2825C341.687 89.7211 342.473 90.0908 342.777 90.3646C342.911 90.4853 342.922 90.6913 342.801 90.825C342.737 90.8973 342.648 90.9332 342.558 90.9332Z" fill="#FF6A48"/>
<path d="M343.73 104.401C343.73 104.401 349.021 105.159 350.073 103.217C350.073 103.217 350.358 106.399 343.764 107.523L343.73 104.401Z" fill="#FF6A48"/>
<path d="M339.518 87.6223L339.06 89.0104C338.885 89.5398 338.314 89.8274 337.784 89.6526C337.52 89.5653 337.234 89.7087 337.147 89.9734C336.864 90.8295 337.329 91.7527 338.185 92.0357L338.747 92.2215" fill="#FFA386"/>
<path d="M338.747 92.5476C338.713 92.5476 338.679 92.5424 338.645 92.5313L338.082 92.3455C337.057 92.0064 336.499 90.8967 336.838 89.8718C336.907 89.6612 337.054 89.4904 337.253 89.39C337.452 89.2902 337.675 89.2739 337.887 89.3437C338.06 89.4004 338.246 89.3867 338.41 89.3045C338.573 89.2224 338.693 89.0822 338.751 88.9088L339.209 87.5207C339.265 87.3492 339.446 87.2547 339.621 87.3133C339.792 87.3701 339.884 87.5539 339.828 87.7247L339.369 89.1128C339.258 89.4519 339.021 89.7264 338.702 89.8874C338.385 90.0478 338.022 90.0752 337.683 89.9624C337.636 89.9474 337.589 89.9507 337.546 89.9728C337.503 89.9944 337.472 90.0309 337.456 90.0759C337.23 90.7605 337.603 91.5011 338.287 91.7267L338.85 91.9125C339.02 91.9693 339.113 92.1531 339.056 92.3239C339.011 92.4609 338.884 92.5476 338.747 92.5476Z" fill="#FF6A48"/>
<path d="M342.7 92.7731C340.971 92.7731 339.564 91.3668 339.564 89.6377C339.564 87.9092 340.971 86.5022 342.7 86.5022C344.428 86.5022 345.835 87.9086 345.835 89.6377C345.835 91.3668 344.429 92.7731 342.7 92.7731ZM342.7 87.1542C341.33 87.1542 340.216 88.2685 340.216 89.6377C340.216 91.0069 341.33 92.1211 342.7 92.1211C344.069 92.1211 345.183 91.0069 345.183 89.6377C345.183 88.2685 344.069 87.1542 342.7 87.1542Z" fill="white"/>
<path d="M345.508 89.2073C345.351 89.2073 345.212 89.0919 345.187 88.9309C345.16 88.7529 345.282 88.5866 345.46 88.5592L353.606 87.3002C353.78 87.2728 353.95 87.3954 353.978 87.5727C354.005 87.7507 353.884 87.917 353.705 87.9444L345.559 89.2034C345.542 89.206 345.525 89.2073 345.508 89.2073Z" fill="white"/>
<path d="M339.994 89.2074C339.943 89.2074 339.891 89.195 339.843 89.1696C339.475 88.9766 338.904 89.0261 338.715 89.0607C338.54 89.092 338.368 88.9779 338.334 88.8006C338.301 88.6239 338.417 88.4537 338.593 88.4204C338.631 88.4139 339.501 88.2542 340.146 88.5932C340.306 88.6767 340.367 88.8742 340.283 89.0333C340.225 89.1442 340.112 89.2074 339.994 89.2074Z" fill="white"/>
<path d="M355.044 72.3831L350.14 71.7376C349.391 70.4121 347.936 69.5554 346.317 69.6708C344.707 69.7855 343.395 70.8287 342.836 72.2338C342.681 72.3023 342.53 72.3805 342.377 72.4568C341.853 72.1771 341.25 72.0291 340.614 72.0747C338.816 72.2025 337.462 73.764 337.59 75.5629C337.616 75.9345 337.717 76.2808 337.855 76.6055C337.456 77.2588 337.113 77.9551 336.856 78.7003C336.608 80.5879 337.766 82.373 339.59 82.922C339.714 82.9598 339.844 82.9964 339.982 83.0303C340.124 83.0655 340.273 83.0981 340.437 83.1261C341.684 83.3387 343.776 83.278 349.146 82.0079C350.985 81.573 352.623 83.2735 352.116 85.0932C351.882 85.9323 351.682 86.8295 351.553 87.7221L356.563 87.8831C357.359 87.9085 358.092 88.1719 358.701 88.6003C358.957 88.7803 359.189 88.9895 359.396 89.223C359.413 89.2432 359.43 89.2634 359.447 89.2836C359.529 89.3801 359.607 89.4805 359.679 89.5848C359.696 89.6089 359.714 89.6331 359.731 89.6578C359.812 89.7798 359.888 89.905 359.955 90.0354C359.957 90.0393 359.96 90.0432 359.962 90.0471C360.031 90.1834 360.093 90.3242 360.147 90.4683C360.158 90.4989 360.167 90.5309 360.178 90.5622C360.216 90.6724 360.25 90.7845 360.278 90.8986C360.289 90.9455 360.299 90.9925 360.31 91.0394C360.332 91.1464 360.349 91.2539 360.362 91.3635C360.368 91.4098 360.375 91.4548 360.379 91.5017C360.392 91.6556 360.4 91.8107 360.394 91.9685L360.391 92.0592C360.384 92.2763 360.355 92.4869 360.314 92.6936C360.308 92.7242 360.304 92.7548 360.297 92.7855C360.254 92.9811 360.195 93.1695 360.124 93.3527C360.111 93.3866 360.097 93.4199 360.083 93.4525C360.007 93.6344 359.919 93.8098 359.818 93.9767C359.804 93.9989 359.789 94.0197 359.776 94.0419C359.666 94.2147 359.546 94.3803 359.412 94.5335L359.411 94.5355C359.276 94.6893 359.126 94.8302 358.969 94.9619C358.95 94.9782 358.931 94.9958 358.91 95.0114C358.757 95.1353 358.593 95.2474 358.422 95.3472C358.397 95.3622 358.371 95.3759 358.347 95.3902C358.17 95.488 357.988 95.5747 357.797 95.6452C357.781 95.651 357.764 95.6556 357.748 95.6615C357.547 95.7332 357.34 95.7912 357.127 95.829C356.861 95.8766 356.586 95.8988 356.306 95.8897L352.894 95.7801C353.602 96.6558 354.541 97.3397 355.641 97.7003L355.157 102.193C355.32 102.181 355.477 102.149 355.632 102.112C355.855 102.061 356.072 101.994 356.277 101.9C357.003 101.569 357.6 100.985 357.929 100.229L358.979 97.8072C361.43 97.1682 363.286 94.9912 363.398 92.3278C363.429 91.5656 363.311 90.8328 363.075 90.1521C364.113 89.457 364.823 88.303 364.879 86.9605C369.541 79.0772 359.509 72.9706 355.044 72.3831Z" fill="#121936"/>
<path d="M392.246 149.279C392.246 149.279 375.071 117.899 374.069 116.596C370.957 112.55 366.116 110.037 360.836 109.963L351.005 109.826L339.793 109.536C338.052 109.536 332.978 110.453 331.678 111.611C327.614 115.233 324.824 121.596 323.233 126.496L319.911 136.723L310.062 125.277C309.671 124.822 309.006 124.725 308.501 125.049L296.906 132.481C296.368 132.826 296.234 133.555 296.615 134.07L312.62 155.671C316.434 161.622 324.676 162.066 329.201 157.19L326.325 180.238H373.919L375.458 160.577L387.043 159.973C392.379 159.694 395.319 153.65 392.246 149.279Z" fill="#9BBEC8"/>
<path d="M321.732 139.782C321.634 139.782 321.536 139.737 321.473 139.653L318.435 135.662C318.325 135.519 318.353 135.315 318.497 135.205C318.641 135.096 318.845 135.124 318.953 135.267L321.991 139.258C322.101 139.402 322.073 139.606 321.93 139.715C321.87 139.76 321.801 139.782 321.732 139.782Z" fill="#121936"/>
<path d="M375.259 163.46C375.247 163.46 375.235 163.46 375.223 163.458C375.044 163.439 374.914 163.278 374.934 163.099L377.836 136.295C377.855 136.116 378.02 135.99 378.195 136.007C378.374 136.026 378.504 136.186 378.484 136.366L375.582 163.17C375.564 163.336 375.423 163.46 375.259 163.46Z" fill="#121936"/>
<path d="M329.201 157.52C329.139 157.52 329.077 157.502 329.021 157.466C328.871 157.367 328.83 157.165 328.929 157.014L339.142 141.545C339.24 141.394 339.442 141.353 339.593 141.452C339.743 141.551 339.784 141.753 339.685 141.904L329.472 157.373C329.41 157.469 329.306 157.52 329.201 157.52Z" fill="#121936"/>
<path d="M227.141 176.616H78.7557C76.5004 176.616 74.6722 174.787 74.6722 172.532V71.3894C74.6722 69.1341 76.5004 67.3059 78.7557 67.3059H227.142C229.397 67.3059 231.225 69.1341 231.225 71.3894V172.533C231.225 174.787 229.396 176.616 227.141 176.616Z" fill="white"/>
<path d="M227.141 67.3059H78.7557C76.5004 67.3059 74.6722 69.1341 74.6722 71.3894V83.4794H231.225V71.3894C231.225 69.1341 229.396 67.3059 227.141 67.3059Z" fill="#427D9D"/>
<path d="M231.225 83.8055H74.6729C74.493 83.8055 74.3469 83.6594 74.3469 83.4795V71.3895C74.3469 68.9581 76.3251 66.98 78.7564 66.98H227.142C229.572 66.98 231.551 68.9581 231.551 71.3895V83.4795C231.551 83.6601 231.405 83.8055 231.225 83.8055ZM74.9983 83.1535H230.898V71.3895C230.898 69.3174 229.213 67.632 227.141 67.632H78.7557C76.6837 67.632 74.9983 69.3174 74.9983 71.3895V83.1535Z" fill="#353148"/>
<path d="M204.323 77.5828C202.918 77.5828 201.775 76.4399 201.775 75.0348C201.775 73.6298 202.918 72.4868 204.323 72.4868C205.728 72.4868 206.871 73.6298 206.871 75.0348C206.871 76.4399 205.728 77.5828 204.323 77.5828ZM204.323 73.1395C203.277 73.1395 202.427 73.9897 202.427 75.0355C202.427 76.0813 203.278 76.9315 204.323 76.9315C205.368 76.9315 206.219 76.0813 206.219 75.0355C206.219 73.9897 205.368 73.1395 204.323 73.1395Z" fill="white"/>
<path d="M213.387 77.5828C211.982 77.5828 210.839 76.4399 210.839 75.0348C210.839 73.6298 211.982 72.4868 213.387 72.4868C214.792 72.4868 215.935 73.6298 215.935 75.0348C215.935 76.4399 214.792 77.5828 213.387 77.5828ZM213.387 73.1395C212.341 73.1395 211.491 73.9897 211.491 75.0355C211.491 76.0813 212.342 76.9315 213.387 76.9315C214.432 76.9315 215.283 76.0813 215.283 75.0355C215.283 73.9897 214.433 73.1395 213.387 73.1395Z" fill="white"/>
<path d="M222.725 77.5828C221.32 77.5828 220.177 76.4399 220.177 75.0348C220.177 73.6298 221.32 72.4868 222.725 72.4868C224.13 72.4868 225.273 73.6298 225.273 75.0348C225.273 76.4399 224.13 77.5828 222.725 77.5828ZM222.725 73.1395C221.679 73.1395 220.829 73.9897 220.829 75.0355C220.829 76.0813 221.68 76.9315 222.725 76.9315C223.771 76.9315 224.621 76.0813 224.621 75.0355C224.621 73.9897 223.77 73.1395 222.725 73.1395Z" fill="white"/>
<path d="M220.691 169.156H85.2059C83.3699 169.156 81.8813 167.668 81.8813 165.832V92.6759C81.8813 90.8398 83.3699 89.3513 85.2059 89.3513H220.69C222.526 89.3513 224.015 90.8398 224.015 92.6759V165.832C224.015 167.668 222.527 169.156 220.691 169.156Z" fill="white"/>
<path d="M220.69 169.482H85.2066C83.1939 169.482 81.556 167.844 81.556 165.831V92.6759C81.556 90.6632 83.1939 89.0254 85.2066 89.0254H220.691C222.704 89.0254 224.341 90.6632 224.341 92.6759V165.832C224.341 167.845 222.703 169.482 220.69 169.482ZM85.2066 89.6774C83.5531 89.6774 82.208 91.0225 82.208 92.6759V165.832C82.208 167.485 83.5531 168.831 85.2066 168.831H220.691C222.344 168.831 223.689 167.485 223.689 165.832V92.6759C223.689 91.0225 222.344 89.6774 220.691 89.6774H85.2066Z" fill="#353148"/>
<path d="M122.025 162.122C104.562 162.122 90.4056 147.966 90.4056 130.503C90.4056 113.04 104.562 98.8835 122.025 98.8835C122.422 98.8835 122.208 162.122 122.025 162.122Z" fill="#9DD3FF"/>
<path d="M156.301 130.503C156.301 113.04 142.144 98.8835 124.682 98.8835C124.477 98.8835 124.435 114.32 124.467 130.633C124.467 130.752 156.301 130.639 156.301 130.503Z" fill="#9BBEC8"/>
<path d="M125.192 156.865C124.778 156.865 124.778 156.865 124.746 144.814C124.738 141.886 124.737 138.958 124.741 136.762C124.748 132.78 124.748 132.78 125.094 132.778C148.403 132.732 148.552 132.882 148.698 133.028C148.76 133.09 148.795 133.175 148.795 133.262C148.796 146.277 138.207 156.865 125.192 156.865ZM125.408 133.429C125.348 136.015 125.416 153.807 125.494 156.211C137.918 156.051 147.992 145.97 148.142 133.545C146.592 133.449 138.1 133.404 125.408 133.429Z" fill="#121936"/>
<path d="M208.988 115.102H166.088C165.908 115.102 165.762 114.956 165.762 114.776C165.762 114.596 165.908 114.45 166.088 114.45H208.988C209.168 114.45 209.314 114.596 209.314 114.776C209.314 114.957 209.168 115.102 208.988 115.102Z" fill="#121936"/>
<path d="M186.76 124.724H166.088C165.908 124.724 165.762 124.578 165.762 124.398C165.762 124.218 165.908 124.072 166.088 124.072H186.76C186.939 124.072 187.086 124.218 187.086 124.398C187.086 124.578 186.94 124.724 186.76 124.724Z" fill="#121936"/>
<path d="M208.924 124.724H190.263C190.083 124.724 189.937 124.578 189.937 124.398C189.937 124.218 190.083 124.072 190.263 124.072H208.924C209.104 124.072 209.25 124.218 209.25 124.398C209.25 124.578 209.104 124.724 208.924 124.724Z" fill="#121936"/>
<path d="M241.732 136.096C240.295 136.062 239.152 136.093 239.152 136.093L163.186 136.005C154.787 136.058 147.859 142.213 146.57 150.24H146.501L146.503 150.692C146.401 151.464 146.346 152.25 146.351 153.05L146.391 159.527C146.422 164.554 144.414 169.454 140.628 172.761C138.416 174.692 135.716 176.067 132.755 176.648C132.563 176.686 133.622 176.703 134.639 176.727C136.076 176.761 137.219 176.731 137.219 176.731L213.185 176.818C221.583 176.766 228.512 170.61 229.801 162.583H229.871L229.868 162.13C229.97 161.359 230.025 160.573 230.02 159.773L229.964 150.806C230.901 143.532 236.51 137.57 243.616 136.175C243.808 136.138 242.75 136.12 241.732 136.096Z" fill="#121936"/>
<path d="M260.64 136.006H163.485C175.164 136.006 184.631 145.872 184.631 158.041V249.78C184.631 257.641 190.747 264.013 198.291 264.013H291.052V167.695C292.239 151.123 282.975 136.006 260.64 136.006Z" fill="white"/>
<path d="M291.052 169.731C290.917 169.731 290.807 169.621 290.807 169.486V162.486C290.807 148.199 279.183 136.575 264.895 136.575H163.222C163.087 136.575 162.977 136.465 162.977 136.33C162.977 136.195 163.087 136.086 163.222 136.086H264.896C279.453 136.086 291.297 147.929 291.297 162.486V169.486C291.296 169.621 291.187 169.731 291.052 169.731Z" fill="#121936"/>
<path d="M313.042 236.864L211.854 236.991L211.915 246.84C211.968 255.381 205.738 262.683 197.655 264.27C197.456 264.309 198.549 264.328 199.6 264.352C201.085 264.387 202.265 264.356 202.265 264.356L280.738 264.446C280.915 264.444 281.09 264.435 281.266 264.429L295.713 264.446C305.377 264.386 313.164 256.503 313.104 246.839L313.042 236.864Z" fill="#121936"/>
<path d="M276.706 176.281H202.018C201.838 176.281 201.692 176.135 201.692 175.955C201.692 175.775 201.838 175.629 202.018 175.629H276.706C276.886 175.629 277.032 175.775 277.032 175.955C277.032 176.136 276.886 176.281 276.706 176.281Z" fill="#121936"/>
<path d="M242.923 160.72H203.502C203.141 160.72 202.85 160.427 202.85 160.068C202.85 159.708 203.141 159.416 203.502 159.416H242.923C243.284 159.416 243.575 159.708 243.575 160.068C243.575 160.427 243.284 160.72 242.923 160.72Z" fill="#9BBEC8"/>
<path d="M237.932 207.45H202.018C201.838 207.45 201.692 207.304 201.692 207.124C201.692 206.944 201.838 206.798 202.018 206.798H237.932C238.112 206.798 238.258 206.944 238.258 207.124C238.258 207.304 238.112 207.45 237.932 207.45Z" fill="#121936"/>
<path d="M226.417 190.899H202.018C201.838 190.899 201.692 190.753 201.692 190.573C201.692 190.393 201.838 190.247 202.018 190.247H226.417C226.597 190.247 226.743 190.393 226.743 190.573C226.743 190.753 226.597 190.899 226.417 190.899Z" fill="#121936"/>
<path d="M276.706 190.899H234.935C234.755 190.899 234.609 190.753 234.609 190.573C234.609 190.393 234.755 190.247 234.935 190.247H276.705C276.885 190.247 277.031 190.393 277.031 190.573C277.032 190.753 276.885 190.899 276.706 190.899Z" fill="#121936"/>
<path d="M226.417 225.155H202.018C201.838 225.155 201.692 225.009 201.692 224.829C201.692 224.649 201.838 224.503 202.018 224.503H226.417C226.597 224.503 226.743 224.649 226.743 224.829C226.743 225.009 226.597 225.155 226.417 225.155Z" fill="#121936"/>
<path d="M237.932 225.155H231.939C231.759 225.155 231.613 225.009 231.613 224.829C231.613 224.649 231.759 224.503 231.939 224.503H237.932C238.112 224.503 238.258 224.649 238.258 224.829C238.258 225.009 238.112 225.155 237.932 225.155Z" fill="#121936"/>
<path d="M253.75 202.568H245.914V227.463H253.75V202.568Z" fill="#9DD3FF"/>
<path d="M265.306 227.789H257.47C257.29 227.789 257.144 227.643 257.144 227.463V212.563C257.144 212.383 257.29 212.237 257.47 212.237H265.306C265.486 212.237 265.632 212.383 265.632 212.563V227.463C265.632 227.644 265.487 227.789 265.306 227.789ZM257.796 227.137H264.98V212.889H257.796V227.137Z" fill="#427D9D"/>
<path d="M276.705 200.009H268.869V227.463H276.705V200.009Z" fill="#9BBEC8"/>
<path d="M224.829 122.594L205.756 102.919C205.631 102.79 205.634 102.583 205.763 102.458C205.892 102.332 206.099 102.337 206.224 102.465L224.85 121.679L245.544 102.264L270.073 121.284C270.215 121.394 270.241 121.599 270.131 121.741C270.019 121.884 269.816 121.909 269.673 121.799L245.586 103.12L224.829 122.594Z" fill="#121936"/>
<path d="M205.99 107.853C208.84 107.853 211.151 105.542 211.151 102.692C211.151 99.8415 208.84 97.5308 205.99 97.5308C203.139 97.5308 200.828 99.8415 200.828 102.692C200.828 105.542 203.139 107.853 205.99 107.853Z" fill="#9BBEC8"/>
<path d="M250.727 102.692C250.727 105.543 248.416 107.853 245.565 107.853C242.715 107.853 240.404 105.543 240.404 102.692C240.404 99.8414 242.715 97.5308 245.565 97.5308C248.416 97.5308 250.727 99.8414 250.727 102.692Z" fill="#9BBEC8"/>
<path d="M229.939 122.367C230.396 119.554 228.485 116.903 225.671 116.446C222.858 115.989 220.207 117.9 219.75 120.714C219.293 123.527 221.204 126.179 224.018 126.635C226.831 127.092 229.483 125.181 229.939 122.367Z" fill="#427D9D"/>
<path d="M274.999 122.176C275.347 119.347 273.336 116.771 270.507 116.423C267.678 116.075 265.102 118.086 264.754 120.915C264.406 123.744 266.417 126.32 269.246 126.668C272.075 127.016 274.651 125.005 274.999 122.176Z" fill="#427D9D"/>
</g>
<defs>
<clipPath id="clip0_52_200">
<rect width="489" height="326" fill="white"/>
</clipPath>
</defs>
</svg>
