<svg width="163" height="175" viewBox="0 0 163 175" fill="none" xmlns="http://www.w3.org/2000/svg">
<g clip-path="url(#clip0_40_621)">
<path d="M54.1418 96.5083C53.5287 95.9089 52.7779 95.4688 51.955 95.2265L45.9261 88.6636L42.7471 91.7068L49.2085 98.0385C49.4833 98.8462 49.9548 99.573 50.5807 100.153C52.1273 101.63 54.177 102.009 55.1596 101.001C56.1422 99.9933 55.6914 97.9828 54.1477 96.5105H54.142L54.1418 96.5083Z" fill="#ED9DA0"/>
<path d="M51.6292 93.5532L48.4277 97.5728L31.8785 85.0632L31.8642 85.0346L22.1933 67.0126C21.794 66.268 21.5517 65.4497 21.4814 64.608C21.4111 63.7663 21.5142 62.9192 21.7845 62.1189C22.0548 61.3186 22.4864 60.5821 23.0528 59.9548C23.6191 59.3275 24.3082 58.8228 25.0775 58.4719C25.8468 58.1209 26.6799 57.931 27.5255 57.9141C28.3711 57.8971 29.2112 58.0534 29.994 58.3733C30.7768 58.6931 31.4856 59.1698 32.0767 59.7738C32.6679 60.3779 33.1288 61.0965 33.431 61.8854L39.7056 78.2859L51.6297 93.5475V93.5532H51.6292Z" fill="#050A30"/>
<path d="M24.3774 51.8687H31.1236V62.5569L23.6853 60.1161L24.3774 51.8687Z" fill="#ED9DA0"/>
<path d="M37.6132 47.4262C37.613 45.4637 36.8321 43.5815 35.4423 42.1939C34.0525 40.8062 32.1676 40.0267 30.2023 40.0269C28.237 40.027 26.3522 40.8067 24.9626 42.1945C23.5729 43.5823 22.7922 45.4645 22.7922 47.4271C22.7922 49.3897 23.5729 51.2719 24.9626 52.6597C26.3522 54.0476 28.237 54.8273 30.2023 54.8274C32.1676 54.8275 34.0525 54.048 35.4423 52.6604C36.8321 51.2727 37.613 49.3906 37.6132 47.428V47.4262Z" fill="#ED9DA0"/>
<path d="M24.9606 52.1573L24.2378 53.5276L21.0469 47.4721C19.126 41.597 25.8352 38.2227 25.8352 38.2227C28.0255 35.6478 32.4245 38.6601 32.4245 38.6601C38.7708 37.252 35.7065 42.5933 35.7065 42.5933C35.7065 42.5933 33.5425 42.641 33.5425 44.3891C33.5425 46.1372 31.1842 46.0164 31.1842 46.0164L29.3364 49.2451L28.3159 48.0067C24.5223 46.4023 24.9597 52.1575 24.9597 52.1575L24.9606 52.1573Z" fill="#090814"/>
<path d="M27.6302 161.385H21.644V169.867H27.6302V161.385Z" fill="#ED9DA0"/>
<path d="M33.4595 175C30.8325 175 26.9966 174.726 26.9672 174.723C25.9417 174.814 20.8181 175.217 20.5636 174.047C20.429 173.26 20.4839 172.453 20.7237 171.691C21.2183 166.801 21.4012 166.744 21.5107 166.713C21.6859 166.661 22.1939 166.903 23.02 167.435L23.0715 167.469L23.0829 167.529C23.0971 167.603 23.4631 169.399 25.1983 169.124C26.3877 168.936 26.7723 168.673 26.8962 168.545C26.7685 168.489 26.6594 168.398 26.5817 168.283C26.5161 168.167 26.4762 168.039 26.4649 167.907C26.4535 167.775 26.471 167.642 26.516 167.517C26.7576 166.802 27.0655 166.111 27.4359 165.453L27.5133 165.316L34.3155 169.9L38.5179 171.099C38.6739 171.143 38.818 171.221 38.9393 171.328C39.0607 171.436 39.1562 171.569 39.2188 171.718C39.3055 171.925 39.3257 172.154 39.2765 172.373C39.2273 172.592 39.1112 172.79 38.9443 172.94C38.1812 173.625 36.6629 174.798 35.0738 174.944C34.6506 174.984 34.0903 174.998 33.4615 174.998L33.4595 175Z" fill="#090814"/>
<path d="M3.55488 155.21L8.16968 159.017L13.5793 152.479L8.96452 148.671L3.55488 155.21Z" fill="#ED9DA0"/>
<path d="M9.37707 166.673C7.353 165 4.57151 162.348 4.55158 162.328C3.70261 161.749 -0.502583 158.797 0.0489387 157.732C0.445914 157.039 1.00383 156.451 1.67569 156.019C5.17757 152.562 5.35193 152.637 5.45772 152.682C5.62637 152.753 5.86315 153.261 6.16103 154.197L6.17811 154.255L6.14941 154.309C6.10933 154.377 5.24613 155.996 6.75833 156.886C7.79588 157.497 8.25914 157.54 8.43633 157.521C8.37305 157.396 8.34719 157.255 8.36186 157.116C8.38511 156.986 8.43629 156.862 8.51189 156.753C8.58749 156.644 8.68574 156.553 8.79992 156.485C9.4429 156.088 10.1215 155.752 10.8271 155.48L10.9727 155.423L13.2881 163.285L15.761 166.885C15.8526 167.019 15.913 167.171 15.9377 167.331C15.9625 167.491 15.9509 167.655 15.904 167.81C15.8384 168.025 15.7078 168.214 15.5302 168.351C15.3526 168.489 15.1367 168.568 14.9122 168.578C13.8889 168.622 11.9704 168.558 10.6527 167.659C10.304 167.419 9.86419 167.074 9.37773 166.675L9.37707 166.673Z" fill="#090814"/>
<path d="M37.5272 95.98L28.4022 163.76H21.5576L16.9958 95.98H37.5292H37.5272Z" fill="#090814"/>
<path d="M19.8489 133.003L6.22144 150.66L12.0532 155.471L35.4403 133.258L37.5301 95.98L33.3479 99.7139L19.8489 133.003Z" fill="#090814"/>
<path d="M33.3479 56.1079L37.5299 95.981H16.9965L15.4041 83.0403C14.4234 75.048 16.0559 66.9532 20.0581 59.963L23.2085 54.4648L33.3483 56.1082L33.3479 56.1079Z" fill="#050A30"/>
<path d="M35.1889 107.311C34.8804 106.511 34.3798 105.8 33.731 105.239L30.9712 96.7651L26.8118 98.2179L30.0563 106.654C29.9687 107.503 30.0954 108.361 30.4249 109.149C31.2167 111.13 32.9265 112.326 34.2385 111.817C35.5505 111.308 35.9737 109.291 35.1819 107.31H35.1876L35.1889 107.311Z" fill="#ED9DA0"/>
<path d="M34.1225 103.562L29.5401 105.892L19.6804 87.6523V87.621L18.3688 67.2182C18.3154 66.3752 18.4355 65.5302 18.7217 64.7354C19.008 63.9406 19.4544 63.2128 20.0333 62.5969C20.6122 61.981 21.3113 61.4902 22.0876 61.1547C22.8638 60.8191 23.7007 60.646 24.5465 60.646C25.3923 60.646 26.2292 60.8191 27.0055 61.1547C27.7817 61.4902 28.4808 61.981 29.0597 62.5969C29.6386 63.2128 30.085 63.9406 30.3713 64.7354C30.6575 65.5302 30.7777 66.3752 30.7242 67.2182L29.6179 84.7384L34.1233 103.566L34.1225 103.562Z" fill="#050A30"/>
<path d="M114.37 26.8119C118.502 26.801 122.595 27.6042 126.415 29.1755C130.235 30.7468 133.707 33.0553 136.632 35.9687C139.557 38.8822 141.878 42.3434 143.462 46.154C145.045 49.9647 145.86 54.0498 145.86 58.1756C145.86 62.3013 145.045 66.3865 143.462 70.1971C141.878 74.0077 139.557 77.4689 136.632 80.3824C133.707 83.2959 130.235 85.6044 126.415 87.1757C122.595 88.7469 118.502 89.5502 114.37 89.5393C97.0246 89.5393 73.0187 72.3653 82.963 58.1755C92.9072 43.9856 97.0246 26.8119 114.37 26.8119Z" fill="#F2F2F2"/>
<path d="M156.406 28.304C156.271 28.3041 156.141 28.3579 156.045 28.4535C155.95 28.5491 155.896 28.6788 155.896 28.814V45.1334C155.899 45.2668 155.954 45.3939 156.049 45.4873C156.144 45.5806 156.273 45.6329 156.406 45.6329C156.54 45.6329 156.668 45.5806 156.764 45.4873C156.859 45.3939 156.914 45.2668 156.917 45.1334V28.814C156.917 28.6788 156.863 28.5492 156.767 28.4536C156.672 28.3579 156.542 28.3041 156.406 28.304Z" fill="#3F3D56"/>
<path d="M70.6111 16.0642C70.4757 16.0643 70.3459 16.1181 70.2501 16.2137C70.1544 16.3094 70.1006 16.439 70.1005 16.5743V20.654C70.099 20.7219 70.1112 20.7893 70.1362 20.8524C70.1613 20.9155 70.1986 20.973 70.2462 21.0215C70.2937 21.07 70.3505 21.1085 70.4131 21.1348C70.4758 21.1611 70.543 21.1747 70.611 21.1747C70.6789 21.1747 70.7462 21.1611 70.8089 21.1348C70.8715 21.1085 70.9283 21.07 70.9758 21.0215C71.0233 20.973 71.0607 20.9155 71.0858 20.8524C71.1108 20.7893 71.1229 20.7219 71.1215 20.654V16.5741C71.1214 16.4389 71.0675 16.3093 70.9718 16.2137C70.8762 16.1182 70.7464 16.0644 70.6111 16.0642Z" fill="#3F3D56"/>
<path d="M70.6111 23.2422C70.4757 23.2423 70.3459 23.2961 70.2501 23.3917C70.1544 23.4873 70.1006 23.617 70.1005 23.7523V31.6569C70.099 31.7248 70.1112 31.7922 70.1362 31.8553C70.1613 31.9184 70.1986 31.9759 70.2462 32.0244C70.2937 32.0729 70.3505 32.1114 70.4131 32.1377C70.4758 32.164 70.543 32.1776 70.611 32.1776C70.6789 32.1776 70.7462 32.164 70.8089 32.1377C70.8715 32.1114 70.9283 32.0729 70.9758 32.0244C71.0233 31.9759 71.0607 31.9184 71.0858 31.8553C71.1108 31.7922 71.1229 31.7248 71.1215 31.6569V23.752C71.1214 23.6169 71.0675 23.4873 70.9718 23.3917C70.8762 23.2961 70.7464 23.2424 70.6111 23.2422Z" fill="#3F3D56"/>
<path d="M70.611 34.2068C70.4756 34.2069 70.3458 34.2607 70.25 34.3563C70.1543 34.4519 70.1005 34.5816 70.1003 34.7169V42.6215C70.1031 42.7549 70.1581 42.882 70.2536 42.9754C70.349 43.0687 70.4773 43.121 70.6109 43.121C70.7445 43.121 70.8728 43.0687 70.9682 42.9754C71.0637 42.882 71.1187 42.7549 71.1214 42.6215V34.7166C71.1213 34.5815 71.0674 34.4519 70.9717 34.3563C70.876 34.2607 70.7463 34.207 70.611 34.2068Z" fill="#3F3D56"/>
<path d="M116.413 -2.55316e-05C116.277 9.03102e-05 116.148 0.0538678 116.052 0.149501C115.956 0.245133 115.902 0.374806 115.902 0.510051V8.41449C115.905 8.54791 115.96 8.67494 116.055 8.76832C116.151 8.8617 116.279 8.914 116.413 8.914C116.546 8.914 116.675 8.8617 116.77 8.76832C116.865 8.67494 116.92 8.54791 116.923 8.41449V0.509833C116.923 0.374587 116.869 0.244915 116.773 0.149282C116.678 0.0536491 116.548 -0.000128299 116.413 -0.000244141L116.413 -2.55316e-05Z" fill="#3F3D56"/>
<path d="M100.638 56.0615H82.9622V55.5514H100.638C101.376 55.5505 102.084 55.2573 102.606 54.7359C103.128 54.2146 103.422 53.5077 103.423 52.7705V40.8362H103.934V52.7705C103.933 53.643 103.586 54.4795 102.968 55.0965C102.35 55.7135 101.513 56.0605 100.639 56.0615H100.638Z" fill="#050A30"/>
<path d="M134.364 81.9316H94.1636V82.4417H134.364V81.9316Z" fill="#050A30"/>
<path d="M159.869 52.6515H138.397C137.84 52.6509 137.306 52.4296 136.912 52.0362C136.518 51.6428 136.297 51.1094 136.296 50.553V29.3719C136.297 28.8156 136.518 28.2822 136.912 27.8888C137.306 27.4954 137.84 27.2741 138.397 27.2734H159.869C160.427 27.2741 160.961 27.4954 161.355 27.8888C161.749 28.2822 161.97 28.8156 161.971 29.3719V50.5528C161.97 51.1092 161.749 51.6426 161.355 52.0361C160.961 52.4295 160.427 52.6509 159.869 52.6515Z" fill="#090814"/>
<path d="M142.396 27.8987C140.944 27.8987 139.552 28.4746 138.525 29.4998C137.498 30.5249 136.922 31.9154 136.922 33.3652V50.1036C136.922 50.3561 136.971 50.6061 137.068 50.8394C137.165 51.0727 137.307 51.2846 137.486 51.4631C137.664 51.6417 137.877 51.7833 138.11 51.8799C138.344 51.9765 138.594 52.0263 138.847 52.0263H151.977C154.461 52.0263 156.844 51.0407 158.601 49.2863C160.357 47.5319 161.344 45.1525 161.344 42.6714V29.8213C161.344 29.5688 161.295 29.3188 161.198 29.0856C161.101 28.8523 160.959 28.6403 160.78 28.4618C160.602 28.2833 160.389 28.1417 160.156 28.045C159.922 27.9484 159.672 27.8987 159.419 27.8987H142.396Z" fill="white"/>
<path d="M154.884 34.054H143.337C143.285 34.054 143.233 34.0437 143.184 34.0237C143.136 34.0036 143.092 33.9742 143.055 33.9372C143.018 33.9001 142.988 33.8561 142.968 33.8077C142.948 33.7593 142.938 33.7075 142.938 33.6551C142.938 33.6027 142.948 33.5508 142.968 33.5024C142.988 33.454 143.018 33.41 143.055 33.373C143.092 33.3359 143.136 33.3065 143.184 33.2865C143.233 33.2664 143.285 33.2561 143.337 33.2561H154.884C154.99 33.2561 155.092 33.2981 155.166 33.373C155.241 33.4478 155.283 33.5493 155.283 33.6551C155.283 33.7609 155.241 33.8624 155.166 33.9372C155.092 34.012 154.99 34.054 154.884 34.054Z" fill="#D6D6E3"/>
<path d="M154.884 42.5614H143.337C143.231 42.5614 143.13 42.5193 143.055 42.4445C142.98 42.3697 142.938 42.2682 142.938 42.1624C142.938 42.0566 142.98 41.9551 143.055 41.8803C143.13 41.8055 143.231 41.7634 143.337 41.7634H154.884C154.99 41.7634 155.092 41.8055 155.166 41.8803C155.241 41.9551 155.283 42.0566 155.283 42.1624C155.283 42.2682 155.241 42.3697 155.166 42.4445C155.092 42.5193 154.99 42.5614 154.884 42.5614Z" fill="#D6D6E3"/>
<path d="M159.573 38.3106H138.649C138.543 38.3106 138.441 38.2686 138.366 38.1938C138.291 38.1189 138.249 38.0175 138.249 37.9117C138.249 37.8058 138.291 37.7044 138.366 37.6295C138.441 37.5547 138.543 37.5127 138.649 37.5127H159.573C159.679 37.5127 159.781 37.5547 159.856 37.6295C159.931 37.7044 159.973 37.8058 159.973 37.9117C159.973 38.0175 159.931 38.1189 159.856 38.1938C159.781 38.2686 159.679 38.3106 159.573 38.3106Z" fill="#D6D6E3"/>
<path d="M159.787 46.0206H152.228C152.122 46.0206 152.02 45.9785 151.945 45.9037C151.87 45.8289 151.828 45.7274 151.828 45.6216C151.828 45.5158 151.87 45.4143 151.945 45.3395C152.02 45.2647 152.122 45.2227 152.228 45.2227H159.787C159.893 45.2227 159.994 45.2647 160.069 45.3395C160.144 45.4143 160.186 45.5158 160.186 45.6216C160.186 45.7274 160.144 45.8289 160.069 45.9037C159.994 45.9785 159.893 46.0206 159.787 46.0206Z" fill="#D6D6E3"/>
<path d="M114.767 94.8531H97.7171C97.2747 94.8527 96.8505 94.6769 96.5376 94.3645C96.2248 94.0521 96.0488 93.6285 96.0483 93.1866V76.3677C96.0488 75.9258 96.2248 75.5022 96.5376 75.1898C96.8505 74.8774 97.2747 74.7016 97.7171 74.7012H114.767C115.21 74.7016 115.634 74.8774 115.947 75.1898C116.26 75.5022 116.436 75.9258 116.436 76.3677V93.1869C116.436 93.6287 116.26 94.0523 115.947 94.3647C115.634 94.6772 115.21 94.8529 114.767 94.8534V94.8531Z" fill="#090814"/>
<path d="M100.892 75.1978C99.7394 75.1978 98.6338 75.6551 97.8186 76.4692C97.0034 77.2833 96.5454 78.3874 96.5454 79.5387V92.8302C96.5454 93.0307 96.585 93.2292 96.6618 93.4144C96.7386 93.5997 96.8512 93.768 96.9932 93.9097C97.1352 94.0515 97.3037 94.164 97.4892 94.2407C97.6747 94.3174 97.8735 94.3569 98.0743 94.3569H108.5C110.473 94.3569 112.365 93.5743 113.76 92.1811C115.155 90.788 115.939 88.8986 115.939 86.9284V76.7247C115.939 76.3198 115.778 75.9315 115.491 75.6451C115.204 75.3588 114.816 75.198 114.41 75.198H100.892V75.1978Z" fill="white"/>
<path d="M110.809 80.0852H101.64C101.556 80.0852 101.475 80.0518 101.416 79.9924C101.356 79.9329 101.323 79.8522 101.323 79.7681C101.323 79.684 101.356 79.6033 101.416 79.5438C101.475 79.4843 101.556 79.4509 101.64 79.4509H110.809C110.893 79.4509 110.974 79.4843 111.034 79.5438C111.093 79.6033 111.127 79.684 111.127 79.7681C111.127 79.8522 111.093 79.9329 111.034 79.9924C110.974 80.0518 110.893 80.0852 110.809 80.0852Z" fill="#D6D6E3"/>
<path d="M110.809 86.8406H101.64C101.556 86.8406 101.475 86.8072 101.416 86.7477C101.356 86.6882 101.323 86.6076 101.323 86.5235C101.323 86.4393 101.356 86.3587 101.416 86.2992C101.475 86.2397 101.556 86.2063 101.64 86.2063H110.809C110.893 86.2063 110.974 86.2397 111.034 86.2992C111.093 86.3587 111.127 86.4393 111.127 86.5235C111.127 86.6076 111.093 86.6882 111.034 86.7477C110.974 86.8072 110.893 86.8406 110.809 86.8406Z" fill="#D6D6E3"/>
<path d="M114.532 83.4654H97.9167C97.8325 83.4654 97.7517 83.432 97.6921 83.3725C97.6326 83.313 97.5991 83.2323 97.5991 83.1482C97.5991 83.0641 97.6326 82.9834 97.6921 82.9239C97.7517 82.8645 97.8325 82.8311 97.9167 82.8311H114.532C114.616 82.8311 114.697 82.8645 114.757 82.9239C114.816 82.9834 114.85 83.0641 114.85 83.1482C114.85 83.2323 114.816 83.313 114.757 83.3725C114.697 83.432 114.616 83.4654 114.532 83.4654Z" fill="#D6D6E3"/>
<path d="M114.702 89.5874H108.701C108.616 89.5874 108.536 89.554 108.476 89.4945C108.417 89.4351 108.383 89.3544 108.383 89.2703C108.383 89.1862 108.417 89.1055 108.476 89.046C108.536 88.9865 108.616 88.9531 108.701 88.9531H114.702C114.786 88.9531 114.867 88.9865 114.927 89.046C114.986 89.1055 115.02 89.1862 115.02 89.2703C115.02 89.3544 114.986 89.4351 114.927 89.4945C114.867 89.554 114.786 89.5874 114.702 89.5874Z" fill="#D6D6E3"/>
<path d="M102.851 40.7076H90.2411C89.9139 40.7072 89.6003 40.5772 89.369 40.3462C89.1376 40.1152 89.0075 39.8019 89.0071 39.4752V27.0368C89.0075 26.7101 89.1376 26.3968 89.369 26.1658C89.6003 25.9348 89.9139 25.8048 90.2411 25.8044H102.851C103.178 25.8048 103.491 25.9348 103.723 26.1658C103.954 26.3968 104.084 26.7101 104.085 27.0368V39.4752C104.084 39.8019 103.954 40.1152 103.723 40.3462C103.491 40.5772 103.178 40.7072 102.851 40.7076Z" fill="#090814"/>
<path d="M92.589 26.1711C92.1668 26.1711 91.7487 26.2542 91.3586 26.4156C90.9685 26.577 90.6141 26.8135 90.3155 27.1117C90.017 27.4099 89.7802 27.7639 89.6187 28.1535C89.4572 28.5431 89.3742 28.9607 89.3743 29.3823V39.2118C89.3743 39.3601 89.4035 39.5069 89.4603 39.6439C89.5172 39.7808 89.6004 39.9053 89.7054 40.0102C89.8104 40.115 89.9351 40.1982 90.0722 40.2549C90.2094 40.3117 90.3564 40.3409 90.5049 40.3409H98.2148C99.6738 40.3409 101.073 39.7621 102.105 38.7318C103.136 37.7016 103.716 36.3043 103.716 34.8473V27.3011C103.716 27.0016 103.597 26.7145 103.385 26.5027C103.173 26.291 102.885 26.172 102.585 26.172H92.589V26.1711Z" fill="white"/>
<path d="M99.9226 29.7859H93.1418C93.0796 29.7859 93.0199 29.7612 92.9759 29.7173C92.9319 29.6734 92.9072 29.6138 92.9072 29.5516C92.9072 29.4895 92.9319 29.4299 92.9759 29.386C93.0199 29.3421 93.0796 29.3174 93.1418 29.3174H99.9226C99.9848 29.3174 100.044 29.3421 100.088 29.386C100.132 29.4299 100.157 29.4895 100.157 29.5516C100.157 29.6138 100.132 29.6734 100.088 29.7173C100.044 29.7612 99.9848 29.7859 99.9226 29.7859Z" fill="#D6D6E3"/>
<path d="M99.9226 34.7818H93.1418C93.111 34.7818 93.0805 34.7757 93.052 34.7639C93.0236 34.7521 92.9977 34.7349 92.9759 34.7131C92.9542 34.6914 92.9369 34.6656 92.9251 34.6371C92.9133 34.6087 92.9072 34.5783 92.9072 34.5475C92.9072 34.5167 92.9133 34.4863 92.9251 34.4578C92.9369 34.4294 92.9542 34.4036 92.9759 34.3818C92.9977 34.3601 93.0236 34.3428 93.052 34.3311C93.0805 34.3193 93.111 34.3132 93.1418 34.3132H99.9226C99.9848 34.3132 100.044 34.3379 100.088 34.3818C100.132 34.4258 100.157 34.4854 100.157 34.5475C100.157 34.6096 100.132 34.6692 100.088 34.7131C100.044 34.7571 99.9848 34.7818 99.9226 34.7818Z" fill="#D6D6E3"/>
<path d="M102.677 32.2852H90.3889C90.3267 32.2852 90.267 32.2605 90.223 32.2166C90.179 32.1726 90.1543 32.113 90.1543 32.0509C90.1543 31.9888 90.179 31.9292 90.223 31.8853C90.267 31.8413 90.3267 31.8167 90.3889 31.8167H102.677C102.739 31.8167 102.798 31.8413 102.842 31.8853C102.886 31.9292 102.911 31.9888 102.911 32.0509C102.911 32.113 102.886 32.1726 102.842 32.2166C102.798 32.2605 102.739 32.2852 102.677 32.2852Z" fill="#D6D6E3"/>
<path d="M102.802 36.8132H98.363C98.3008 36.8132 98.2411 36.7886 98.1971 36.7446C98.1531 36.7007 98.1284 36.6411 98.1284 36.579C98.1284 36.5169 98.1531 36.4573 98.1971 36.4133C98.2411 36.3694 98.3008 36.3447 98.363 36.3447H102.802C102.864 36.3447 102.924 36.3694 102.968 36.4133C103.012 36.4573 103.037 36.5169 103.037 36.579C103.037 36.6411 103.012 36.7007 102.968 36.7446C102.924 36.7886 102.864 36.8132 102.802 36.8132Z" fill="#D6D6E3"/>
<path d="M136.904 55.0748C138.878 55.0748 140.479 53.4765 140.479 51.5049C140.479 49.5333 138.878 47.9351 136.904 47.9351C134.93 47.9351 133.329 49.5333 133.329 51.5049C133.329 53.4765 134.93 55.0748 136.904 55.0748Z" fill="#050A30"/>
<path d="M103.646 43.3865C105.056 43.3865 106.2 42.2449 106.2 40.8366C106.2 39.4283 105.056 38.2866 103.646 38.2866C102.236 38.2866 101.093 39.4283 101.093 40.8366C101.093 42.2449 102.236 43.3865 103.646 43.3865Z" fill="#050A30"/>
<path d="M115.902 78.1474C117.594 78.1474 118.966 76.7775 118.966 75.0876C118.966 73.3978 117.594 72.0278 115.902 72.0278C114.21 72.0278 112.838 73.3978 112.838 75.0876C112.838 76.7775 114.21 78.1474 115.902 78.1474Z" fill="#050A30"/>
<path d="M121.418 7.6165C123.175 7.6165 124.6 6.22367 124.6 4.50552C124.6 2.78737 123.175 1.39453 121.418 1.39453C119.66 1.39453 118.236 2.78737 118.236 4.50552C118.236 6.22367 119.66 7.6165 121.418 7.6165Z" fill="#D6D6E3"/>
<path d="M146.93 3.44142H129.8C129.518 3.44142 129.246 3.32928 129.047 3.12968C128.847 2.93008 128.734 2.65936 128.734 2.37708C128.734 2.0948 128.847 1.82408 129.047 1.62448C129.246 1.42488 129.518 1.31274 129.8 1.31274H146.93C147.212 1.31274 147.484 1.42488 147.683 1.62448C147.883 1.82408 147.996 2.0948 147.996 2.37708C147.996 2.65936 147.883 2.93008 147.683 3.12968C147.484 3.32928 147.212 3.44142 146.93 3.44142Z" fill="#D6D6E3"/>
<path d="M160.298 7.04371H129.8C129.518 7.04371 129.246 6.93158 129.047 6.73197C128.847 6.53237 128.734 6.26165 128.734 5.97937C128.734 5.6971 128.847 5.42638 129.047 5.22678C129.246 5.02717 129.518 4.91504 129.8 4.91504H160.298C160.581 4.91504 160.852 5.02717 161.052 5.22678C161.251 5.42638 161.364 5.6971 161.364 5.97937C161.364 6.26165 161.251 6.53237 161.052 6.73197C160.852 6.93158 160.581 7.04371 160.298 7.04371Z" fill="#D6D6E3"/>
<path d="M75.3547 20.6921C76.4922 20.6921 77.4143 19.7907 77.4143 18.6787C77.4143 17.5667 76.4922 16.6653 75.3547 16.6653C74.2173 16.6653 73.2952 17.5667 73.2952 18.6787C73.2952 19.7907 74.2173 20.6921 75.3547 20.6921Z" fill="#050A30"/>
<path d="M91.8659 17.9901H80.7798C80.5968 17.9901 80.4213 17.9175 80.2919 17.7883C80.1625 17.659 80.0898 17.4838 80.0898 17.3011C80.0898 17.1183 80.1625 16.9431 80.2919 16.8139C80.4213 16.6847 80.5968 16.6121 80.7798 16.6121H91.8659C92.0489 16.6121 92.2243 16.6847 92.3537 16.8139C92.4831 16.9431 92.5558 17.1183 92.5558 17.3011C92.5558 17.4838 92.4831 17.659 92.3537 17.7883C92.2243 17.9175 92.0489 17.9901 91.8659 17.9901Z" fill="#050A30"/>
<path d="M100.517 20.3211H80.7798C80.5968 20.3211 80.4213 20.2485 80.2919 20.1193C80.1625 19.9901 80.0898 19.8148 80.0898 19.6321C80.0898 19.4494 80.1625 19.2741 80.2919 19.1449C80.4213 19.0157 80.5968 18.9431 80.7798 18.9431H100.517C100.7 18.9431 100.876 19.0157 101.005 19.1449C101.135 19.2741 101.207 19.4494 101.207 19.6321C101.207 19.8148 101.135 19.9901 101.005 20.1193C100.876 20.2485 100.7 20.3211 100.517 20.3211Z" fill="#050A30"/>
<path d="M137.148 92.3439C138.285 92.3439 139.207 91.4425 139.207 90.3305C139.207 89.2186 138.285 88.3171 137.148 88.3171C136.01 88.3171 135.088 89.2186 135.088 90.3305C135.088 91.4425 136.01 92.3439 137.148 92.3439Z" fill="#050A30"/>
<path d="M153.659 89.6419H142.573C142.39 89.6419 142.215 89.5693 142.085 89.4401C141.956 89.3109 141.883 89.1356 141.883 88.9529C141.883 88.7702 141.956 88.5949 142.085 88.4657C142.215 88.3365 142.39 88.2639 142.573 88.2639H153.659C153.842 88.2639 154.018 88.3365 154.147 88.4657C154.276 88.5949 154.349 88.7702 154.349 88.9529C154.349 89.1356 154.276 89.3109 154.147 89.4401C154.018 89.5693 153.842 89.6419 153.659 89.6419Z" fill="#050A30"/>
<path d="M162.311 91.973H142.573C142.39 91.973 142.215 91.9004 142.085 91.7712C141.956 91.6419 141.883 91.4667 141.883 91.284C141.883 91.1012 141.956 90.926 142.085 90.7968C142.215 90.6676 142.39 90.595 142.573 90.595H162.311C162.494 90.595 162.669 90.6676 162.798 90.7968C162.928 90.926 163.001 91.1012 163.001 91.284C163.001 91.4667 162.928 91.6419 162.798 91.7712C162.669 91.9004 162.494 91.973 162.311 91.973Z" fill="#050A30"/>
<path d="M112.391 27.281H111.881V51.505H112.391V27.281Z" fill="#090814"/>
<path d="M112.136 53.0354C112.981 53.0354 113.667 52.3504 113.667 51.5054C113.667 50.6604 112.981 49.9753 112.136 49.9753C111.29 49.9753 110.604 50.6604 110.604 51.5054C110.604 52.3504 111.29 53.0354 112.136 53.0354Z" fill="#090814"/>
<path d="M135.372 70.6294C136.218 70.6294 136.903 69.9443 136.903 69.0993C136.903 68.2543 136.218 67.5693 135.372 67.5693C134.526 67.5693 133.84 68.2543 133.84 69.0993C133.84 69.9443 134.526 70.6294 135.372 70.6294Z" fill="#090814"/>
<path d="M94.0061 49.7204C94.8521 49.7204 95.5378 49.0354 95.5378 48.1904C95.5378 47.3454 94.8521 46.6604 94.0061 46.6604C93.1601 46.6604 92.4744 47.3454 92.4744 48.1904C92.4744 49.0354 93.1601 49.7204 94.0061 49.7204Z" fill="#090814"/>
<path d="M93.4444 48.1944L85.062 48.4456L85.0773 48.9559L93.4597 48.7047L93.4444 48.1944Z" fill="#090814"/>
<path d="M147.836 74.9562H135.132V69.0991H135.643V74.4462H147.837L147.836 74.9562Z" fill="#090814"/>
<path d="M93.3772 66.4257C94.2232 66.4257 94.9089 65.7407 94.9089 64.8957C94.9089 64.0507 94.2232 63.3657 93.3772 63.3657C92.5312 63.3657 91.8455 64.0507 91.8455 64.8957C91.8455 65.7407 92.5312 66.4257 93.3772 66.4257Z" fill="#090814"/>
<path d="M105.69 70.7527H92.9863V64.8958H93.4971V70.2428H105.691L105.69 70.7527Z" fill="#090814"/>
<path d="M144.564 59.0745H83.542V59.5845H144.564V59.0745Z" fill="#090814"/>
</g>
<defs>
<clipPath id="clip0_40_621">
<rect width="163" height="175" fill="white"/>
</clipPath>
</defs>
</svg>
