<svg width="199" height="166" viewBox="0 0 199 166" fill="none" xmlns="http://www.w3.org/2000/svg">
<g clip-path="url(#clip0_38_356)">
<path d="M165.555 156.743L165.21 161.346L158.205 159.045L161.075 155.592L165.555 156.743Z" fill="#FEB8B8"/>
<path d="M191.052 155.247L190.706 159.735L186.802 160.31L184.505 158.124L187.146 153.865L191.052 155.247Z" fill="#FEB8B8"/>
<path d="M193.923 97.9338C193.923 97.9338 197.024 101.617 193.119 107.256C189.214 112.895 184.505 118.419 184.505 118.419L175.776 134.992C175.776 134.992 171.296 151.219 170.263 151.679C169.229 152.139 168.655 150.298 169.229 152.254C169.803 154.211 169.459 154.096 168.999 154.211C168.54 154.327 167.277 154.096 167.736 154.902C168.195 155.708 168.54 155.708 167.621 155.708C166.702 155.708 166.358 155.132 166.358 155.938C166.358 156.743 165.554 158.585 165.554 158.585C165.554 158.585 159.926 156.974 159.696 156.283C159.467 155.592 161.189 155.247 160.845 154.557C160.5 153.866 160.386 153.866 160.386 152.831C160.386 151.795 161.075 151.565 161.075 151.565C161.075 151.565 161.649 151.335 161.419 150.874C161.19 150.414 160.271 150.644 161.419 150.068C162.568 149.493 167.277 131.884 167.277 131.884C167.277 131.884 167.277 123.137 168.77 120.26C170.263 117.384 169.115 96.8977 172.676 96.6676C176.238 96.4375 193.923 97.9338 193.923 97.9338Z" fill="#2F2E41"/>
<path d="M192.774 104.493L192.085 122.332C192.085 122.332 195.531 139.595 194.382 144.889C193.234 150.182 194.038 149.492 193.349 150.413C192.659 151.333 192.085 150.873 192.659 151.679C193.234 152.484 193.577 152.714 192.659 153.636C191.742 154.557 191.281 156.743 191.281 156.743L185.424 156.168C185.424 156.168 186.917 153.521 186.342 152.945C185.766 152.37 184.274 153.291 185.424 152.026C186.574 150.761 187.262 151.335 186.572 150.76C185.883 150.185 184.85 150.415 185.768 149.494C186.687 148.573 187.721 148.574 186.802 148.228C185.883 147.882 184.849 148.228 185.309 147.537C185.769 146.847 186.343 146.041 186.343 146.041L184.965 135.568C184.965 135.568 183.357 132.116 183.816 130.62C184.275 129.124 181.863 116.809 181.863 116.809L192.774 104.493Z" fill="#2F2E41"/>
<path d="M190.248 157.548C190.248 157.548 191.397 156.397 191.741 157.088C192.086 157.779 194.612 163.993 193.119 164.453C191.627 164.914 189.444 165.373 188.296 165.029C187.147 164.685 184.735 163.072 181.864 163.072C178.993 163.072 176.581 161.806 176.581 161.346C176.581 160.885 176.122 158.123 178.304 158.123C180.486 158.123 184.506 155.591 184.506 155.591C184.506 155.591 185.423 153.75 185.884 153.865C186.344 153.98 185.999 157.663 185.999 157.663C185.999 157.663 188.64 160.195 190.248 157.548Z" fill="#2F2E41"/>
<path d="M164.751 159.044C164.751 159.044 165.785 156.512 166.818 157.087C167.852 157.662 167.163 164.797 167.163 164.797C167.163 164.797 166.245 166.294 163.602 165.948C160.96 165.603 153.955 164.797 152.347 165.143C150.739 165.488 146.375 163.532 147.523 160.884C147.523 160.884 148.098 159.388 150.854 159.503C153.611 159.618 158.664 156.281 158.664 156.281C158.664 156.281 159.468 153.979 159.698 154.209C159.927 154.439 160.157 158.468 160.157 158.468C160.157 158.468 163.143 160.425 164.751 159.044Z" fill="#2F2E41"/>
<path d="M179.796 52.9351C183.475 52.9351 186.458 49.9466 186.458 46.26C186.458 42.5735 183.475 39.585 179.796 39.585C176.117 39.585 173.135 42.5735 173.135 46.26C173.135 49.9466 176.117 52.9351 179.796 52.9351Z" fill="#FEB8B8"/>
<path d="M184.964 46.7202C184.964 46.7202 188.525 53.8555 189.788 54.5462C191.051 55.2368 181.174 59.495 181.174 59.495C181.174 59.495 179.567 52.4748 177.614 50.9787C175.662 49.4827 184.964 46.7202 184.964 46.7202Z" fill="#FEB8B8"/>
<path d="M174.743 105.069L174.284 109.442C174.284 109.442 169.345 107.716 170.953 104.493L174.743 105.069Z" fill="#FEB8B8"/>
<path d="M172.791 98.5091C176.237 102.191 194.497 99.0835 194.497 99.0835L194.268 96.4368L196.565 94.0216L195.877 82.7424C195.877 82.7424 197.943 77.449 198.287 69.3929C198.308 68.8978 198.278 68.4018 198.198 67.9127C197.014 60.696 185.287 56.048 184.965 56.1572C184.803 56.2107 183.076 57.1121 181.275 58.0604C179.207 59.149 177.041 60.3004 177.041 60.3004C174.284 61.3378 174.744 77.9104 173.824 79.4063C172.905 80.9021 173.824 86.079 173.824 86.079L172.791 91.0274C172.791 91.0274 169.345 94.8273 172.791 98.5091Z" fill="#F0F0F0"/>
<path opacity="0.1" d="M183.922 61.9737C183.922 61.9737 187.138 71.6409 186.449 78.2009C185.76 84.7609 178.294 103.52 178.294 103.52L175.769 104.901V108.123L173.992 103.299L178.879 93.0598C178.879 93.0598 172.781 57.7156 183.922 61.9737Z" fill="black"/>
<path opacity="0.1" d="M180.906 59.0731C184.238 57.2321 189.292 62.0676 194.575 67.2447C196.472 69.1034 197.569 68.9164 198.198 67.9124C197.014 60.6958 185.287 56.0477 184.965 56.1569C184.803 56.2104 183.077 57.1118 181.275 58.0602L180.906 59.0731Z" fill="black"/>
<path d="M180.908 58.1835L182.286 54.3857C182.286 54.3857 191.704 49.8973 197.905 54.3857L198.939 60.8304C198.939 60.8304 199.857 71.5334 194.575 66.3546C189.293 61.1758 184.238 56.342 180.908 58.1835Z" fill="#F0F0F0"/>
<path d="M183.587 60.4157C183.587 60.4157 186.802 70.0829 186.113 76.6429C185.424 83.2029 177.959 101.962 177.959 101.962L175.432 103.344V106.566L170.149 105.07L171.298 101.273C171.298 101.273 169.46 98.9708 170.724 98.2802C171.987 97.5896 171.757 93.7918 171.757 93.7918C171.757 93.7918 172.446 56.1575 183.587 60.4157Z" fill="#F0F0F0"/>
<path d="M185.735 49.0545C185.626 48.5386 185.641 47.9835 185.394 47.5179C185.024 46.8197 184.173 46.5276 183.387 46.4587C182.384 46.3712 181.373 46.5452 180.368 46.4764C179.363 46.4075 178.289 46.0237 177.789 45.1477C177.589 44.7983 177.491 44.3869 177.226 44.0839C176.676 43.4534 175.671 43.551 174.88 43.8212C174.088 44.0914 173.263 44.4861 172.454 44.2749C171.773 42.3671 172.611 40.1665 174.06 38.754C175.509 37.3414 177.464 36.5812 179.405 36.0146C181.965 35.2672 184.847 34.8255 187.201 36.0811C190.614 37.9016 191.819 42.7203 191.504 46.3118C191.385 47.6695 191.19 49.2068 190.095 50.1233C188.49 51.4668 186.22 51.3515 185.735 49.0545Z" fill="#2F2E41"/>
<path d="M143.939 0.0817871H0.0617676V92.4168H143.939V0.0817871Z" fill="#E6E6E6"/>
<path d="M140.296 11.6628H4.64624V86.9542H140.296V11.6628Z" fill="white"/>
<path d="M143.878 0H0V6.12499H143.878V0Z" fill="#050A30"/>
<path d="M4.5424 4.2667C5.16812 4.2667 5.67537 3.75841 5.67537 3.1314C5.67537 2.50439 5.16812 1.99609 4.5424 1.99609C3.91667 1.99609 3.40942 2.50439 3.40942 3.1314C3.40942 3.75841 3.91667 4.2667 4.5424 4.2667Z" fill="white"/>
<path d="M8.84269 4.2667C9.46842 4.2667 9.97567 3.75841 9.97567 3.1314C9.97567 2.50439 9.46842 1.99609 8.84269 1.99609C8.21697 1.99609 7.70972 2.50439 7.70972 3.1314C7.70972 3.75841 8.21697 4.2667 8.84269 4.2667Z" fill="white"/>
<path d="M13.1427 4.2667C13.7685 4.2667 14.2757 3.75841 14.2757 3.1314C14.2757 2.50439 13.7685 1.99609 13.1427 1.99609C12.517 1.99609 12.0098 2.50439 12.0098 3.1314C12.0098 3.75841 12.517 4.2667 13.1427 4.2667Z" fill="white"/>
<path d="M28.3785 22.2158L19.4058 31.0948L28.3785 39.9735L30.3974 37.9505L23.6125 31.1507L30.4541 24.295L28.3785 22.2158Z" fill="#050A30"/>
<path d="M35.7306 22.2158L44.7031 31.0948L35.7306 39.9735L33.7117 37.9505L40.4971 31.1509L33.655 24.295L35.7306 22.2158Z" fill="#050A30"/>
<path d="M64.7536 24.4441C64.0196 24.4441 63.4248 24.8671 63.4248 25.3886C63.4248 25.9102 64.0196 26.3332 64.7536 26.3332H127.394C128.128 26.3332 128.723 25.9102 128.723 25.3886C128.723 24.8671 128.128 24.4441 127.394 24.4441H64.7536Z" fill="#E6E6E6"/>
<path d="M126.771 76.1938H21.3942C20.317 76.1938 19.444 75.5707 19.4429 74.8027V56.1658C19.444 55.3978 20.317 54.7747 21.3942 54.7747H126.771C127.848 54.7747 128.721 55.3978 128.722 56.1658V74.8025C128.721 75.5704 127.848 76.1929 126.771 76.1938ZM21.3942 55.3306C20.7479 55.3306 20.2241 55.7046 20.2234 56.1653V74.802C20.2234 75.2627 20.7479 75.6362 21.3942 75.6367H126.771C127.417 75.6367 127.941 75.2627 127.942 74.802V56.1658C127.942 55.7051 127.417 55.3316 126.771 55.3311L21.3942 55.3306Z" fill="#E6E6E6"/>
<path d="M32.2457 70.2006C34.8495 70.2006 36.9602 68.0855 36.9602 65.4764C36.9602 62.8673 34.8495 60.7522 32.2457 60.7522C29.642 60.7522 27.5312 62.8673 27.5312 65.4764C27.5312 68.0855 29.642 70.2006 32.2457 70.2006Z" fill="#E6E6E6"/>
<path d="M45.5425 61.698C45.2925 61.6977 45.0526 61.7969 44.8756 61.9738C44.6986 62.1507 44.599 62.3908 44.5986 62.6413C44.5983 62.8918 44.6973 63.1322 44.8739 63.3096C45.0504 63.487 45.29 63.5868 45.54 63.5871H89.9817C90.2317 63.5871 90.4715 63.4876 90.6482 63.3105C90.825 63.1333 90.9243 62.8931 90.9243 62.6425C90.9243 62.392 90.825 62.1518 90.6482 61.9747C90.4715 61.7975 90.2317 61.698 89.9817 61.698H45.5425Z" fill="#050A30"/>
<path d="M45.5425 67.3657C45.4187 67.3656 45.2961 67.3898 45.1817 67.4372C45.0672 67.4845 44.9632 67.5539 44.8756 67.6415C44.6986 67.8184 44.599 68.0585 44.5986 68.3091C44.5983 68.5596 44.6973 68.7999 44.8739 68.9773C45.0504 69.1547 45.29 69.2545 45.54 69.2548H64.6645C64.9145 69.2552 65.1543 69.156 65.3313 68.979C65.5084 68.8021 65.608 68.562 65.6083 68.3115C65.6086 68.061 65.5096 67.8206 65.3331 67.6432C65.1565 67.4659 64.9169 67.366 64.6669 67.3657H45.5425Z" fill="#050A30"/>
<path d="M64.2962 30.1028C64.0593 30.1219 63.8383 30.2297 63.6771 30.4048C63.516 30.5798 63.4265 30.8092 63.4265 31.0473C63.4265 31.2855 63.516 31.5149 63.6771 31.6899C63.8383 31.8649 64.0593 31.9728 64.2962 31.9919H105.349C105.586 31.9728 105.807 31.8649 105.968 31.6899C106.129 31.5149 106.219 31.2855 106.219 31.0473C106.219 30.8092 106.129 30.5798 105.968 30.4048C105.807 30.2297 105.586 30.1219 105.349 30.1028H64.2962Z" fill="#E6E6E6"/>
<path d="M64.5662 35.7617C63.9359 35.7617 63.4248 36.1847 63.4248 36.7063C63.4248 37.2278 63.9359 37.6508 64.5662 37.6508H118.38C119.01 37.6508 119.521 37.2278 119.521 36.7063C119.521 36.1847 119.01 35.7617 118.38 35.7617H64.5662Z" fill="#E6E6E6"/>
</g>
<defs>
<clipPath id="clip0_38_356">
<rect width="199" height="166" fill="white"/>
</clipPath>
</defs>
</svg>
