<svg width="182" height="174" viewBox="0 0 182 174" fill="none" xmlns="http://www.w3.org/2000/svg">
<g clip-path="url(#clip0_40_595)">
<path d="M179.59 174H37.3995C36.7606 173.999 36.148 173.745 35.6962 173.294C35.2444 172.843 34.9902 172.231 34.9895 171.593V84.1382C34.9902 83.5001 35.2444 82.8882 35.6962 82.437C36.148 81.9857 36.7606 81.7319 37.3995 81.7312H179.59C180.229 81.7319 180.842 81.9857 181.293 82.437C181.745 82.8882 181.999 83.5001 182 84.1382V171.593C181.999 172.231 181.745 172.843 181.293 173.294C180.842 173.745 180.229 173.999 179.59 174ZM37.3995 82.2661C36.9026 82.2667 36.4261 82.4641 36.0747 82.8151C35.7233 83.166 35.5256 83.6419 35.5251 84.1382V171.593C35.5256 172.089 35.7233 172.565 36.0747 172.916C36.4261 173.267 36.9026 173.465 37.3995 173.465H179.59C180.087 173.465 180.563 173.267 180.915 172.916C181.266 172.565 181.464 172.089 181.464 171.593V84.1382C181.464 83.6419 181.266 83.166 180.915 82.8151C180.563 82.4641 180.087 82.2667 179.59 82.2661H37.3995Z" fill="#3F3D56"/>
<path d="M163.166 156.803H151.92C151.742 156.803 151.572 156.733 151.447 156.607C151.321 156.482 151.25 156.312 151.25 156.135V150.251C151.25 150.074 151.321 149.904 151.447 149.778C151.572 149.653 151.742 149.582 151.92 149.582H160.02C160.127 149.582 160.229 149.625 160.304 149.7C160.379 149.775 160.422 149.877 160.422 149.983C160.422 150.09 160.379 150.192 160.304 150.267C160.229 150.342 160.127 150.385 160.02 150.385H152.455C152.349 150.385 152.247 150.427 152.171 150.502C152.096 150.577 152.054 150.679 152.054 150.786V155.6C152.054 155.706 152.096 155.808 152.171 155.883C152.247 155.959 152.349 156.001 152.455 156.001H162.631C162.737 156.001 162.839 155.959 162.915 155.883C162.99 155.808 163.032 155.706 163.033 155.6V153.05C163.033 152.943 163.075 152.841 163.15 152.766C163.225 152.691 163.328 152.648 163.434 152.648C163.541 152.648 163.643 152.691 163.718 152.766C163.794 152.841 163.836 152.943 163.836 153.05V156.135C163.836 156.312 163.765 156.482 163.64 156.607C163.514 156.733 163.344 156.803 163.166 156.803Z" fill="#3F3D56"/>
<path d="M143.306 97.7779H56.8134C56.4938 97.7779 56.1873 97.6511 55.9613 97.4254C55.7354 97.1997 55.6084 96.8935 55.6084 96.5744C55.6084 96.2552 55.7354 95.9491 55.9613 95.7233C56.1873 95.4976 56.4938 95.3708 56.8134 95.3708H143.306C143.625 95.3708 143.932 95.4976 144.158 95.7233C144.384 95.9491 144.511 96.2552 144.511 96.5744C144.511 96.8935 144.384 97.1997 144.158 97.4254C143.932 97.6511 143.625 97.7779 143.306 97.7779Z" fill="#CCCCCC"/>
<path d="M143.306 107.673H56.8134C56.4938 107.673 56.1873 107.547 55.9613 107.321C55.7354 107.095 55.6084 106.789 55.6084 106.47C55.6084 106.151 55.7354 105.845 55.9613 105.619C56.1873 105.393 56.4938 105.266 56.8134 105.266H143.306C143.625 105.266 143.932 105.393 144.158 105.619C144.384 105.845 144.511 106.151 144.511 106.47C144.511 106.789 144.384 107.095 144.158 107.321C143.932 107.547 143.625 107.673 143.306 107.673Z" fill="#CCCCCC"/>
<path d="M143.306 117.569H56.8134C56.4938 117.569 56.1873 117.442 55.9613 117.216C55.7354 116.991 55.6084 116.685 55.6084 116.365C55.6084 116.046 55.7354 115.74 55.9613 115.514C56.1873 115.289 56.4938 115.162 56.8134 115.162H143.306C143.625 115.162 143.932 115.289 144.158 115.514C144.384 115.74 144.511 116.046 144.511 116.365C144.511 116.685 144.384 116.991 144.158 117.216C143.932 117.442 143.625 117.569 143.306 117.569Z" fill="#CCCCCC"/>
<path d="M143.306 127.464H56.8134C56.4938 127.464 56.1873 127.338 55.9613 127.112C55.7354 126.886 55.6084 126.58 55.6084 126.261C55.6084 125.942 55.7354 125.636 55.9613 125.41C56.1873 125.184 56.4938 125.057 56.8134 125.057H143.306C143.625 125.057 143.932 125.184 144.158 125.41C144.384 125.636 144.511 125.942 144.511 126.261C144.511 126.58 144.384 126.886 144.158 127.112C143.932 127.338 143.625 127.464 143.306 127.464Z" fill="#CCCCCC"/>
<path d="M143.306 137.36H56.8134C56.4938 137.36 56.1873 137.233 55.9613 137.007C55.7354 136.782 55.6084 136.476 55.6084 136.156C55.6084 135.837 55.7354 135.531 55.9613 135.305C56.1873 135.08 56.4938 134.953 56.8134 134.953H143.306C143.625 134.953 143.932 135.08 144.158 135.305C144.384 135.531 144.511 135.837 144.511 136.156C144.511 136.476 144.384 136.782 144.158 137.007C143.932 137.233 143.625 137.36 143.306 137.36Z" fill="#CCCCCC"/>
<path d="M157.766 100.051C159.689 100.051 161.247 98.4946 161.247 96.5745C161.247 94.6543 159.689 93.0977 157.766 93.0977C155.843 93.0977 154.285 94.6543 154.285 96.5745C154.285 98.4946 155.843 100.051 157.766 100.051Z" fill="#050A30"/>
<path d="M157.766 109.947C159.689 109.947 161.247 108.39 161.247 106.47C161.247 104.55 159.689 102.993 157.766 102.993C155.843 102.993 154.285 104.55 154.285 106.47C154.285 108.39 155.843 109.947 157.766 109.947Z" fill="#FF6584"/>
<path d="M157.766 119.842C159.689 119.842 161.247 118.286 161.247 116.365C161.247 114.445 159.689 112.889 157.766 112.889C155.843 112.889 154.285 114.445 154.285 116.365C154.285 118.286 155.843 119.842 157.766 119.842Z" fill="#050A30"/>
<path d="M157.766 129.738C159.689 129.738 161.247 128.181 161.247 126.261C161.247 124.341 159.689 122.784 157.766 122.784C155.843 122.784 154.285 124.341 154.285 126.261C154.285 128.181 155.843 129.738 157.766 129.738Z" fill="#F2F2F2"/>
<path d="M157.766 139.633C159.689 139.633 161.247 138.076 161.247 136.156C161.247 134.236 159.689 132.679 157.766 132.679C155.843 132.679 154.285 134.236 154.285 136.156C154.285 138.076 155.843 139.633 157.766 139.633Z" fill="#F2F2F2"/>
<path d="M157.677 154.92C157.578 154.92 157.48 154.901 157.389 154.863C157.298 154.825 157.215 154.77 157.146 154.7L154.77 152.328C154.695 152.253 154.653 152.151 154.653 152.045C154.653 151.938 154.695 151.836 154.77 151.761C154.847 151.688 154.949 151.647 155.055 151.647C155.16 151.647 155.262 151.688 155.339 151.761L157.582 154.002C157.608 154.026 157.642 154.04 157.677 154.04C157.712 154.04 157.746 154.026 157.771 154.002L165.237 146.546C165.314 146.473 165.415 146.432 165.521 146.432C165.627 146.432 165.728 146.473 165.805 146.546C165.88 146.621 165.923 146.723 165.923 146.829C165.923 146.936 165.88 147.038 165.805 147.113L158.208 154.7C158.138 154.77 158.056 154.825 157.964 154.863C157.873 154.901 157.776 154.92 157.677 154.92Z" fill="#050A30"/>
<path opacity="0.1" d="M157.677 161.617C167.881 161.617 176.154 161.138 176.154 160.548C176.154 159.957 167.881 159.478 157.677 159.478C147.473 159.478 139.2 159.957 139.2 160.548C139.2 161.138 147.473 161.617 157.677 161.617Z" fill="black"/>
<path d="M21.3561 65.7706H1.19978C0.881683 65.7703 0.576709 65.6439 0.351778 65.4193C0.126848 65.1946 0.000334576 64.89 0 64.5723V54.0274C0.000334576 53.7097 0.126848 53.4051 0.351778 53.1804C0.576709 52.9558 0.881683 52.8294 1.19978 52.8291H15.7171C15.8118 52.8289 15.9055 52.8474 15.993 52.8834C16.0805 52.9195 16.1601 52.9724 16.2271 53.0392C16.2941 53.106 16.3472 53.1853 16.3835 53.2726C16.4197 53.3599 16.4384 53.4535 16.4384 53.5481C16.4384 53.6426 16.4197 53.7362 16.3835 53.8235C16.3472 53.9109 16.2941 53.9902 16.2271 54.057C16.1601 54.1237 16.0805 54.1767 15.993 54.2127C15.9055 54.2488 15.8118 54.2672 15.7171 54.267H2.1596C1.96874 54.2673 1.78576 54.3431 1.6508 54.4779C1.51584 54.6126 1.43994 54.7954 1.43973 54.986V63.6137C1.43994 63.8043 1.51584 63.9871 1.6508 64.1219C1.78576 64.2567 1.96874 64.3325 2.1596 64.3327H20.3963C20.5871 64.3325 20.7701 64.2567 20.9051 64.1219C21.04 63.9871 21.1159 63.8043 21.1161 63.6137V59.0434C21.1161 58.8527 21.192 58.6698 21.327 58.535C21.462 58.4001 21.6451 58.3244 21.836 58.3244C22.0269 58.3244 22.21 58.4001 22.345 58.535C22.48 58.6698 22.5559 58.8527 22.5559 59.0434V64.5723C22.5556 64.89 22.429 65.1946 22.2041 65.4193C21.9792 65.6439 21.6742 65.7703 21.3561 65.7706Z" fill="#3F3D56"/>
<path d="M11.5179 62.3946C11.3411 62.3949 11.166 62.3604 11.0026 62.2929C10.8392 62.2254 10.6908 62.1264 10.5658 62.0014L6.30918 57.7503C6.17428 57.6154 6.09851 57.4326 6.09851 57.242C6.09851 57.0513 6.17428 56.8685 6.30918 56.7336C6.44636 56.6029 6.62867 56.53 6.81826 56.53C7.00785 56.53 7.19016 56.6029 7.32734 56.7336L11.3482 60.7498C11.3938 60.7935 11.4546 60.8179 11.5178 60.8179C11.581 60.8179 11.6417 60.7935 11.6873 60.7498L25.0672 47.387C25.2044 47.2563 25.3867 47.1833 25.5762 47.1833C25.7658 47.1833 25.948 47.2563 26.0852 47.387C26.2201 47.5218 26.2959 47.7047 26.2958 47.8953C26.2958 48.086 26.2199 48.2688 26.0849 48.4036L12.4702 62.0014C12.3452 62.1264 12.1968 62.2254 12.0333 62.2929C11.8699 62.3603 11.6947 62.3949 11.5179 62.3946Z" fill="#050A30"/>
<path d="M38.2357 83.0789H62.6036C63.1951 83.0789 63.6747 82.5999 63.6747 82.0091V76.3927C63.6747 75.8019 63.1951 75.3229 62.6036 75.3229H38.2357C37.6441 75.3229 37.1646 75.8019 37.1646 76.3927V82.0091C37.1646 82.5999 37.6441 83.0789 38.2357 83.0789Z" fill="#2F2E41"/>
<path d="M62.0681 75.0554H25.1146C24.9036 75.0554 24.6947 75.0969 24.4997 75.1776C24.3048 75.2582 24.1277 75.3764 23.9785 75.5254C23.8293 75.6744 23.711 75.8513 23.6302 76.046C23.5495 76.2407 23.5079 76.4494 23.5079 76.6601V102.067C23.5079 102.493 23.6772 102.901 23.9785 103.202C24.2798 103.503 24.6885 103.672 25.1146 103.672H29.6668C30.093 103.672 30.5016 103.503 30.8029 103.202C31.1042 102.901 31.2735 102.493 31.2735 102.067V82.8113H37.1646V102.335C37.1647 102.76 37.3339 103.169 37.6352 103.47C37.9365 103.77 38.3452 103.94 38.7713 103.94H43.3236C43.7497 103.94 44.1583 103.77 44.4596 103.47C44.7609 103.169 44.9302 102.76 44.9302 102.335V82.8113H62.0681C62.4942 82.8113 62.9028 82.6423 63.2041 82.3413C63.5054 82.0404 63.6747 81.6323 63.6747 81.2067V76.6601C63.6747 76.4494 63.6332 76.2407 63.5524 76.046C63.4717 75.8513 63.3534 75.6744 63.2042 75.5254C63.055 75.3764 62.8778 75.2582 62.6829 75.1776C62.488 75.0969 62.2791 75.0554 62.0681 75.0554Z" fill="#2F2E41"/>
<path d="M71.3437 83.2286L36.2241 82.4901C35.9856 82.4851 35.7512 82.4271 35.538 82.3204C35.3247 82.2136 35.138 82.0608 34.9912 81.8729C34.8445 81.6851 34.7415 81.467 34.6896 81.2345C34.6378 81.0019 34.6385 80.7607 34.6916 80.5285L43.2424 43.1394C43.3234 42.7851 43.5225 42.4687 43.8071 42.2421C44.0916 42.0155 44.4448 41.8921 44.8087 41.8921H54.0044C57.0274 41.8921 59.9583 42.9314 62.3045 44.8353C64.6508 46.7392 66.2693 49.3917 66.8882 52.3471L72.9502 81.2957C72.9997 81.5321 72.9951 81.7765 72.9369 82.0109C72.8786 82.2452 72.7682 82.4634 72.6138 82.6492C72.4594 82.835 72.265 82.9836 72.0451 83.0839C71.8252 83.1842 71.5854 83.2336 71.3437 83.2286Z" fill="#2F2E41"/>
<path d="M49.5948 38.5586C57.5098 38.5586 63.9261 32.1502 63.9261 24.2451C63.9261 16.34 57.5098 9.93164 49.5948 9.93164C41.6799 9.93164 35.2635 16.34 35.2635 24.2451C35.2635 32.1502 41.6799 38.5586 49.5948 38.5586Z" fill="#050A30"/>
<path d="M43.0931 16.538C41.4204 16.144 39.6144 15.6138 38.4213 14.2985C37.4056 13.1787 36.9293 11.4507 37.8293 10.1232C38.6511 8.91104 40.2721 8.46628 41.6365 8.23897C43.2223 7.97477 44.8521 7.93618 46.3402 7.26208C47.0708 6.93202 47.7084 6.42676 48.1964 5.79124C48.6494 5.15596 49.0426 4.48017 49.3709 3.77252C49.682 3.08285 50.0977 2.44518 50.6033 1.88197C51.1782 1.31965 51.9197 0.958049 52.7172 0.851132C54.5126 0.578605 56.217 1.40727 57.6297 2.43633C58.9976 3.45245 60.2387 4.62868 61.3263 5.93985C63.796 8.87939 65.496 12.3855 66.2737 16.1434C66.3782 16.6488 67.1527 16.4349 67.0484 15.9301C66.3048 12.3738 64.76 9.03336 62.5313 6.16209C61.4276 4.73042 60.1598 3.4328 58.7538 2.29573C57.2981 1.12452 55.6174 0.103812 53.7028 0.00709006C52.8174 -0.0444205 51.9336 0.130862 51.1351 0.516307C50.4013 0.902594 49.7838 1.47703 49.3459 2.18058C48.4438 3.54705 48.0086 5.31282 46.5532 6.23714C45.079 7.1734 43.2332 7.18263 41.5609 7.44314C40.0735 7.67485 38.4176 8.1642 37.4106 9.35725C36.2968 10.6769 36.3387 12.4752 37.1706 13.9306C38.095 15.5478 39.8124 16.4303 41.5371 16.9564C41.98 17.0916 42.4289 17.2055 42.8795 17.3117C43.3823 17.4301 43.5968 16.6567 43.0931 16.538Z" fill="#2F2E41"/>
<path d="M51.1433 29.0239C50.2577 28.9991 49.1558 28.9683 48.3074 28.3493C48.0547 28.1573 47.847 27.9125 47.699 27.6319C47.551 27.3513 47.4662 27.0418 47.4506 26.725C47.4353 26.5 47.4723 26.2744 47.5587 26.066C47.6452 25.8576 47.7787 25.672 47.9488 25.5236C48.3919 25.1493 49.0393 25.0613 49.7371 25.2666L49.0143 19.9908L49.5449 19.9182L50.3946 26.1204L49.9515 25.9175C49.4375 25.6819 48.7327 25.5625 48.2945 25.9321C48.1869 26.0287 48.1031 26.1488 48.0495 26.2831C47.996 26.4174 47.9742 26.5622 47.9858 26.7062C47.9988 26.942 48.0624 27.1722 48.1724 27.3811C48.2825 27.5901 48.4362 27.773 48.6233 27.9173C49.2835 28.3989 50.1619 28.4613 51.1582 28.489L51.1433 29.0239Z" fill="#2F2E41"/>
<path d="M46.3902 20.4458H43.5059V20.9807H46.3902V20.4458Z" fill="#2F2E41"/>
<path d="M55.4947 20.4458H52.6104V20.9807H55.4947V20.4458Z" fill="#2F2E41"/>
<path d="M22.1823 69.2341C21.8479 69.2343 21.5206 69.1385 21.2393 68.9581C20.958 68.7777 20.7346 68.5203 20.5957 68.2166L18.9571 64.6243C18.8624 64.4166 18.8095 64.1922 18.8016 63.9641C18.7936 63.7359 18.8308 63.5085 18.9109 63.2947C18.9909 63.0808 19.1124 62.8849 19.2683 62.7179C19.4243 62.551 19.6116 62.4164 19.8196 62.3218L49.796 48.6823C50.2162 48.4918 50.6949 48.4755 51.1271 48.6369C51.5593 48.7984 51.9097 49.1245 52.1016 49.5437L53.7401 53.1359C53.9309 53.5556 53.9473 54.0337 53.7856 54.4654C53.624 54.897 53.2975 55.2471 52.8778 55.4387L22.9013 69.0779C22.6756 69.1808 22.4304 69.2341 22.1823 69.2341Z" fill="#050A30"/>
</g>
<defs>
<clipPath id="clip0_40_595">
<rect width="182" height="174" fill="white"/>
</clipPath>
</defs>
</svg>
