<svg width="12" height="15" viewBox="0 0 12 15" fill="none" xmlns="http://www.w3.org/2000/svg">
<path d="M5.25 12.75H6.75V9.61875L7.95 10.8188L9 9.75L6 6.75L3 9.75L4.06875 10.8L5.25 9.61875V12.75ZM1.5 15C1.0875 15 0.734375 14.8531 0.440625 14.5594C0.146875 14.2656 0 13.9125 0 13.5V1.5C0 1.0875 0.146875 0.734375 0.440625 0.440625C0.734375 0.146875 1.0875 0 1.5 0H7.5L12 4.5V13.5C12 13.9125 11.8531 14.2656 11.5594 14.5594C11.2656 14.8531 10.9125 15 10.5 15H1.5ZM6.75 5.25V1.5H1.5V13.5H10.5V5.25H6.75Z" fill="#152039"/>
</svg>
